<?xml version="1.0" encoding="UTF-8"?>
<!DOCTYPE svg PUBLIC "-//W3C//DTD SVG 1.1//EN" "http://www.w3.org/Graphics/SVG/1.1/DTD/svg11.dtd">
<!-- Creator: CorelDRAW X7 -->
<svg xmlns="http://www.w3.org/2000/svg" xml:space="preserve" width="1200px" height="565px" version="1.1" style="shape-rendering:geometricPrecision; text-rendering:geometricPrecision; image-rendering:optimizeQuality; fill-rule:evenodd; clip-rule:evenodd"
viewBox="0 0 1200 565"
 xmlns:xlink="http://www.w3.org/1999/xlink">
 <defs>
  <style type="text/css">
   <![CDATA[
    .fil0 {fill:#EBECEC}
    .fil3 {fill:#9D9E9E}
    .fil1 {fill:#898989}
    .fil2 {fill:#9D9E9E;fill-rule:nonzero}
   ]]>
  </style>
 </defs>
 <g id="Layer_x0020_1">
  <metadata id="CorelCorpID_0Corel-Layer"/>
  <rect class="fil0" width="1200" height="565"/>
  <g id="_2557046328720">
   <path class="fil1" d="M498 467l-3 0 0 15c0,5 0,9 0,14l0 0c-1,-4 -3,-7 -6,-11l-11 -18 -3 0 0 34 3 0 0 -15c0,-6 0,-10 0,-14l0 0c2,3 4,7 6,11l11 18 3 0 0 -34zm227 -2l-3 0 0 36 3 0 0 -36zm-9 5c0,-2 -1,-3 -2,-3 -1,0 -2,1 -2,3 0,1 0,2 2,2 1,0 2,-1 2,-2zm0 7l-4 0 0 24 4 0 0 -24zm-10 9c0,-5 -1,-10 -8,-10 -3,0 -6,1 -8,2l1 3c2,-2 4,-2 6,-2 6,0 6,4 6,6 -9,0 -14,4 -14,9 0,4 2,7 7,7 3,0 6,-1 7,-3l0 0 0 3 4 0c-1,-2 -1,-4 -1,-6l0 -9zm-3 7c0,3 -3,5 -6,5 -3,0 -5,-1 -5,-4 0,-5 6,-6 11,-6l0 5zm-18 -7c0,-8 -5,-10 -8,-10 -4,0 -7,2 -8,4l0 0 -1 -3 -3 0c0,2 0,3 0,6l0 18 4 0 0 -15c0,-4 3,-7 6,-7 5,0 6,4 6,7l0 15 4 0 0 -15zm-42 -6l0 -15 -3 0 0 30c0,2 -1,4 -1,6l4 0 0 -4 0 0c2,3 4,4 8,4 5,0 10,-4 10,-13 0,-7 -4,-12 -10,-12 -3,0 -6,2 -8,4l0 0zm0 7c0,-4 3,-8 7,-8 5,0 7,4 7,10 0,5 -2,9 -7,9 -4,0 -7,-3 -7,-7l0 -4zm-9 -1c0,-8 -5,-10 -8,-10 -4,0 -6,2 -8,5l0 0c-1,-3 -3,-5 -6,-5 -4,0 -6,2 -8,4l0 0 0 -3 -3 0c0,2 0,3 0,6l0 18 3 0 0 -15c0,-4 3,-7 6,-7 4,0 5,3 5,7l0 15 4 0 0 -15c0,-4 3,-7 6,-7 3,0 5,3 5,8l0 14 4 0 0 -15zm-39 -9l-4 0 0 15c0,4 -3,6 -6,6 -4,0 -6,-3 -6,-8l0 -13 -3 0 0 14c0,8 4,10 8,10 4,0 6,-2 7,-4l1 0 0 4 3 0c0,-2 0,-4 0,-7l0 -17zm-25 9c0,-8 -5,-10 -8,-10 -3,0 -6,2 -7,4l-1 0 0 -15 -3 0 0 36 3 0 0 -15c0,-5 4,-7 7,-7 4,0 5,4 5,7l0 15 4 0 0 -15zm-33 -9l-3 0 0 2 3 0 0 14c0,3 1,8 6,8 2,0 3,0 4,0l0 -3c-1,0 -2,0 -3,0 -2,0 -3,-1 -3,-5l0 -14 6 0 0 -2 -6 0 0 -6 -4 1 0 5zm-23 -1c-6,0 -11,5 -11,13 0,8 5,12 11,12 5,0 11,-4 11,-13 0,-7 -4,-12 -11,-12zm7 13c0,5 -3,9 -7,9 -5,0 -8,-4 -8,-9 0,-5 3,-10 8,-10 5,0 7,5 7,10z"/>
   <path class="fil2" d="M426 323l144 -245c3,-5 7,-9 12,-12 6,-3 12,-4 19,-4 6,0 12,1 18,4 5,3 9,7 12,12l144 245c3,4 5,9 4,14 0,5 -2,10 -5,15 -3,4 -8,8 -13,10 -5,2 -10,4 -16,4l-289 0c-6,0 -11,-2 -16,-4 -5,-2 -10,-6 -13,-10 -3,-5 -5,-10 -5,-15 0,-5 1,-10 4,-14zm147 -243l-144 245c-2,4 -3,8 -3,12 0,4 2,8 4,12 3,4 7,7 11,9 5,2 10,3 15,3l289 0c5,0 10,-1 15,-3 4,-2 8,-5 11,-9 2,-4 4,-8 4,-12 0,-4 -1,-8 -3,-12l-144 -245c-3,-5 -7,-8 -11,-10 -5,-3 -11,-4 -16,-4 -6,0 -12,1 -17,4 -4,2 -8,5 -11,10z"/>
  </g>
  <path class="fil2" d="M597 169c0,-2 1,-3 3,-3 2,0 3,1 3,3l0 111c0,1 -1,3 -3,3 -2,0 -3,-2 -3,-3l0 -111z"/>
  <path class="fil3" d="M600 310c-4,0 -7,4 -7,7 0,4 3,8 7,8 4,0 7,-4 7,-8 0,-3 -3,-7 -7,-7z"/>
  <path class="fil1" d="M400 429c0,0 -1,1 -1,1 0,1 -1,1 -2,1 0,0 -1,0 -1,-1 -1,0 -1,-1 -1,-1 0,-1 0,-1 1,-2 0,0 1,0 1,0 1,0 2,0 2,0 0,1 1,1 1,2z"/>
  <polygon class="fil1" points="417,412 415,415 410,412 412,409 "/>
  <polygon class="fil1" points="424,412 422,415 417,412 419,409 "/>
  <polygon class="fil1" points="479,440 476,443 473,440 470,443 467,440 470,437 473,439 475,437 "/>
  <path class="fil1" d="M497 425c0,2 0,3 0,3 0,1 -3,1 -8,1 -1,0 -2,0 -4,0 -1,0 -2,0 -2,0l-3 0c0,0 0,0 0,0 -2,0 -4,0 -7,0 -1,0 -2,0 -4,0 -1,0 -2,0 -3,0l-2 0c0,0 0,0 -1,0 0,0 -1,0 -2,0 -1,0 -3,0 -5,-1 -1,0 -2,-1 -3,-1 -1,1 -2,1 -2,1 -1,1 -3,1 -4,1 -4,0 -7,-1 -8,-1 -1,0 -3,1 -5,1l-3 0c0,0 0,0 0,0 -1,0 -3,0 -5,1 -7,1 -11,1 -13,1 -3,0 -6,-1 -7,-2 -2,-2 -2,-3 -2,-5 0,-2 0,-4 2,-7 0,0 1,-1 1,-1 0,0 0,0 0,1 0,0 0,0 0,1 0,0 0,1 0,2 0,4 2,5 8,5 4,0 8,0 14,-1 -1,-1 -2,-3 -4,-5l3 -4c0,-1 0,-1 1,0 2,2 3,5 3,8l0 0 3 0c2,0 3,0 4,0 0,-1 0,-2 0,-4l3 -4c1,1 1,2 1,3 0,1 -1,3 -1,5 1,0 2,0 5,0 3,0 4,0 5,0 0,-1 0,-2 0,-3l4 -4c0,0 0,1 0,2 0,1 0,3 -1,4 1,1 3,2 5,2 1,0 1,-1 2,-1 0,-1 -1,-3 -2,-4l4 -4c0,0 0,1 1,3 0,1 0,3 0,4l0 1 1 0c1,0 1,0 3,0 1,0 2,0 4,0 2,0 3,0 4,0 -1,-2 -2,-3 -3,-5l3 -5c0,0 0,0 0,0 2,3 4,6 4,10l1 0c1,0 2,0 3,0 1,0 3,0 4,0 2,0 3,0 4,0 -1,-2 -2,-3 -3,-5l3 -5c0,0 0,0 1,0 2,4 3,7 3,12z"/>
  <polygon class="fil1" points="491,405 489,409 485,407 486,403 "/>
  <path class="fil1" d="M551 423l0 5c0,0 -1,1 -4,1 -1,0 -3,0 -4,-1 -2,0 -3,-1 -4,-1 -1,1 -1,1 -2,1 -1,1 -2,1 -4,1 -1,2 -1,3 -2,5 -1,2 -2,3 -2,3 -1,1 -2,1 -4,2 -2,1 -3,1 -5,1 -6,0 -9,-3 -9,-10 0,-3 1,-6 3,-9 0,-1 1,-1 1,-1 0,0 0,0 0,0 0,0 0,1 0,2 -1,2 -2,4 -2,6 0,4 2,6 8,6 1,0 3,0 5,0 2,-1 3,-2 4,-2 0,-4 -1,-7 -3,-11l3 -4c0,0 0,0 0,0 0,0 0,0 0,0 1,2 2,4 3,6 1,0 3,0 5,0 0,-1 1,-1 1,-2 0,-1 -1,-1 -1,-1l4 -4c0,0 0,1 0,2 0,1 0,3 -1,4 1,1 3,2 5,2 1,0 2,-1 2,-1 0,-1 0,-3 -1,-4l3 -4c0,0 1,1 1,3 0,1 0,3 0,4 0,1 0,1 0,1z"/>
  <polygon class="fil1" points="585,407 583,411 580,408 577,411 574,408 576,404 580,407 582,404 "/>
  <path class="fil1" d="M621 423l0 5c0,0 -2,1 -4,1 -1,0 -3,0 -5,-1 -1,0 -2,-1 -3,-1 -1,1 -2,1 -2,1 -1,1 -3,1 -5,1 -3,0 -6,-1 -7,-1 -1,0 -3,1 -5,1l-3 0c0,0 0,0 0,0 -2,0 -4,0 -7,0 -1,0 -3,0 -4,0 -2,0 -3,0 -3,0l-1 0c-1,3 -2,5 -3,8 -2,3 -4,5 -7,5 -2,0 -3,-1 -5,-3 -2,-1 -3,-2 -3,-4 -1,0 -1,-1 -1,-1 0,0 0,0 0,0 1,0 1,0 1,0 2,2 4,2 6,2 2,0 4,0 5,-2 2,-1 3,-3 4,-5 -1,-2 -2,-4 -4,-6l2 -5c2,1 3,3 4,5l2 0c0,0 1,0 2,0 2,0 3,0 5,0 2,0 3,0 4,0 -1,-2 -2,-3 -3,-5l3 -5c0,0 0,0 0,0 2,3 3,6 4,10l3 0c2,0 3,0 4,0 0,-1 0,-2 0,-4l3 -4c1,1 1,2 1,3 0,1 -1,3 -1,5 0,0 2,0 5,0 2,0 4,0 5,0 0,-1 0,-2 0,-3l4 -4c0,0 0,1 0,2 0,1 -1,3 -1,4 1,1 2,2 4,2 2,0 2,-1 3,-1 0,-1 -1,-3 -2,-4l4 -4c0,0 0,1 1,3 0,1 0,3 0,4 0,1 0,1 0,1z"/>
  <path class="fil1" d="M639 428c0,1 0,1 -1,1 0,0 -1,0 -3,1 -3,0 -5,1 -6,1 -3,0 -4,-2 -4,-5 0,0 0,-2 0,-3 0,-2 1,-2 1,-2 0,0 0,0 0,1 0,2 1,3 3,3 1,0 2,0 4,0 1,-1 3,-1 3,-1 -1,-3 -2,-6 -4,-8l3 -5c0,0 0,0 0,0 1,2 2,4 3,7 1,2 1,4 1,6l0 4z"/>
  <path class="fil1" d="M669 427c0,3 -1,7 -2,10 -2,3 -5,5 -8,5 -1,0 -3,-1 -4,-3 -2,-1 -3,-2 -4,-4 0,0 0,-1 0,-1 0,0 0,0 0,0 0,0 1,0 1,0 2,2 4,2 6,2 2,0 4,0 5,-2 2,-1 3,-3 4,-5 -1,-2 -2,-4 -4,-6l2 -5c3,2 4,5 4,9z"/>
  <path class="fil1" d="M688 428c0,1 -1,1 -2,1 0,0 -1,0 -2,1 -4,0 -6,1 -7,1 -2,0 -4,-2 -4,-5 0,0 0,-2 1,-3 0,-2 0,-2 1,-2 0,0 0,0 0,1 0,2 1,3 3,3 1,0 2,0 3,0 2,-1 3,-1 3,-1 0,-3 -1,-6 -3,-8l2 -5c0,0 1,0 1,0 1,2 2,4 3,7 0,2 1,4 1,6l0 4z"/>
  <polygon class="fil1" points="731,440 729,443 726,440 723,443 720,440 722,437 726,439 728,437 "/>
  <path class="fil1" d="M734 425c0,2 0,3 0,3 0,1 -3,1 -8,1 -1,0 -2,0 -4,0 -1,0 -2,0 -3,0l-1 0c0,3 -1,5 -3,8 -2,3 -4,5 -7,5 -2,0 -3,-1 -5,-3 -1,-1 -2,-2 -3,-4 0,0 0,-1 0,-1 0,0 0,0 0,0 0,0 0,0 1,0 1,2 3,2 5,2 2,0 4,0 6,-2 1,-1 2,-3 3,-5 0,-2 -2,-4 -4,-6l2 -5c2,1 4,3 4,5l2 0c1,0 1,0 3,0 1,0 2,0 4,0 2,0 3,0 4,0 -1,-2 -2,-3 -3,-5l3 -5c0,0 0,0 0,0 3,4 4,7 4,12z"/>
  <path class="fil1" d="M814 425c0,2 0,3 0,3 -1,1 -3,1 -8,1 -1,0 -3,0 -4,0 -2,0 -3,0 -3,0l-2 0c-1,0 -1,-1 -1,-1 0,0 -1,0 -1,0 -1,1 -4,1 -8,1 -9,0 -14,0 -16,0 -3,0 -5,-1 -6,-1 -1,0 -3,1 -6,1l-3 0c0,2 -1,5 -2,7 -3,4 -5,5 -8,5 -2,0 -3,0 -5,-2 -2,-1 -3,-2 -4,-4 -1,0 -1,-1 -1,-1 0,0 0,0 0,0 1,0 1,0 1,0 2,1 4,2 6,2 2,0 4,-1 6,-2 2,-1 4,-3 4,-5 -5,0 -8,-2 -8,-5 0,-2 0,-4 1,-7 2,-2 3,-4 5,-4 1,0 2,1 3,3 2,2 3,5 3,7l2 0c3,0 5,0 6,0 0,-1 0,-2 -1,-4l4 -4c0,1 0,2 0,3 0,1 0,3 -1,5 1,0 3,0 5,0 2,0 4,-1 7,-2 1,-2 3,-4 5,-5 2,-2 4,-3 5,-3 2,0 3,1 5,2 2,1 3,3 4,3 0,1 0,2 0,3 0,1 0,1 0,2l1 0c0,0 1,0 2,0 2,0 3,0 5,0 2,0 3,0 4,0 -1,-2 -2,-3 -3,-5l3 -5c0,0 0,0 0,0 3,4 4,7 4,12zm-19 -3c0,0 -1,-1 -2,-2 -2,-1 -3,-1 -5,-1 -2,0 -3,0 -4,1 -2,1 -3,2 -5,3 5,0 8,0 10,0 2,0 3,0 4,0 2,0 2,0 2,-1zm-42 1c0,-1 -1,-2 -2,-2 0,-1 -1,-2 -2,-2 0,0 -1,1 -2,3 2,1 4,1 6,1z"/>
  <polygon class="fil1" points="812,407 809,411 806,408 803,411 800,408 803,404 806,407 808,404 "/>
  <path class="fil1" d="M400 407l-2 16 -1 0 -2 -16c0,0 0,0 0,0 0,-1 0,-2 1,-2 0,-1 1,-1 1,-1 2,0 3,1 3,3 0,0 0,0 0,0z"/>
 </g>
</svg>
