<?xml version="1.0" encoding="utf-8"?>
<!-- Generator: Adobe Illustrator 18.0.0, SVG Export Plug-In . SVG Version: 6.00 Build 0)  -->
<!DOCTYPE svg PUBLIC "-//W3C//DTD SVG 1.1//EN" "http://www.w3.org/Graphics/SVG/1.1/DTD/svg11.dtd">
<svg version="1.1" id="Layer_1" xmlns="http://www.w3.org/2000/svg" xmlns:xlink="http://www.w3.org/1999/xlink" x="0px" y="0px"
	 viewBox="0 0 95 85" enable-background="new 0 0 95 85" xml:space="preserve">
<g>
	<path fill-rule="evenodd" clip-rule="evenodd" fill="#FFFFFF" d="M26.7,74.2c0-6.1-4.9-11.1-11-11.1c-6.1,0-11,5-11,11.1
		c0,6.1,4.9,11.1,11,11.1C21.7,85.3,26.7,80.3,26.7,74.2L26.7,74.2z M58.5,74.2c0-6.1-4.9-11.1-11-11.1c-6.1,0-11,5-11,11.1
		c0,6.1,4.9,11.1,11,11.1C53.6,85.3,58.5,80.3,58.5,74.2L58.5,74.2z M89.9,74.2C89.9,68,85,63,78.9,63c-6.1,0-11,5-11,11.1
		c0,6.1,4.9,11.1,11,11.1C85,85.3,89.9,80.3,89.9,74.2L89.9,74.2z M73.2,55.4h2.3v-4.8h-2.3V55.4L73.2,55.4z M0,0v55.4h66.6v-4.8V49
		v-2.1l-0.6,0l-0.9-17.1H49.3v-4.6h15.6h2.3H71l3.5,4.1l3.4-4.1l7.5,1l0.5,17.2l-3.2,0l-0.2,3.5h-0.5V49v1.6v4.8l12.6,0V0H0L0,0z
		 M74.4,23.8c-5.1,0-9.2-4.2-9.2-9.4c0-5.2,4.1-9.4,9.2-9.4c5.1,0,9.2,4.2,9.2,9.4C83.6,19.6,79.5,23.8,74.4,23.8L74.4,23.8z"/>
</g>
</svg>
