<?xml version="1.0" standalone="no"?>
<!DOCTYPE svg PUBLIC "-//W3C//DTD SVG 1.1//EN" "http://www.w3.org/Graphics/SVG/1.1/DTD/svg11.dtd" >
<svg xmlns="http://www.w3.org/2000/svg" xmlns:xlink="http://www.w3.org/1999/xlink" version="1.1">
<metadata>
Created by FontForge 20150318 at Tue Sep  8 17:01:01 2015
 By uniteet7
Copyright (c) 2014 by www.moslemebrahimi.com. All rights reserved.
</metadata>
<defs>
<font id="IRANSansLight" horiz-adv-x="0" >
  <font-face 
    font-family="IRANSansLight"
    font-weight="300"
    font-stretch="normal"
    units-per-em="2048"
    panose-1="2 11 4 0 0 0 0 0 0 0"
    ascent="1638"
    descent="-410"
    bbox="-211 -1045 2098 1973.7"
    underline-thickness="60"
    underline-position="-650"
    unicode-range="U+0020-FEFC"
  />
<missing-glyph horiz-adv-x="1024" 
d="M128 0v1343h768v-1343h-768zM256 128h512v1087h-512v-1087z" />
    <glyph glyph-name="uE818" unicode="&#x651;&#x64b;" 
d="M390 1822l23 -58l-300 -119l-23 57zM438 1688l22 -58l-299 -115l-22 58zM237 1250h-4q-43 2 -65 17t-31 30q-13 21 -14.5 46t3 47t11 38.5t9.5 22.5l55 -26q-5 -9 -9 -22t-6.5 -26.5t-2 -26t5.5 -21.5q4 -7 14.5 -11.5t23 -6t24 1.5t18.5 12q10 10 14.5 26t6.5 33t1.5 33
t-0.5 26q15 2 27 4q11 2 19.5 2t8.5 -1q5 -45 13 -71t16 -38.5t16.5 -15t15.5 -2.5q29 2 38.5 22t6 47t-16.5 54.5t-28 45.5l51 35q4 -7 16 -26t23 -44.5t16.5 -53.5t-2.5 -52t-20 -41t-26.5 -27.5t-30 -15t-30.5 -4.5q-17 0 -38.5 7t-39.5 30q-33 -48 -89 -48z" />
    <glyph glyph-name="uFC5E" unicode="&#x651;&#x64c;" arabic-form="isolated" 
d="M172 1285h-4q-43 2 -65 17t-31 30q-13 21 -14.5 46t3 47t11 38.5t9.5 22.5l55 -26q-5 -9 -9 -22t-6.5 -26.5t-2 -26t5.5 -21.5q4 -7 14.5 -11.5t23 -6t24 1.5t18.5 12q10 10 14.5 26t6.5 33t1.5 33t-0.5 26q15 2 27 4q11 2 19.5 2t8.5 -1q5 -45 13 -71t16 -38.5t16.5 -15
t15.5 -2.5q29 2 38.5 22t6 47t-16.5 54.5t-28 45.5l51 35q4 -7 16 -26t23 -44.5t16.5 -53.5t-2.5 -52t-20 -41t-26.5 -27.5t-30 -15t-30.5 -4.5q-17 0 -38.5 7t-39.5 30q-33 -48 -89 -48zM132 1599l-33 46q4 7 8.5 20.5t7 28.5t2 30t-5.5 24q-2 5 -6 8t-14 4q-8 0 -16.5 -3
t-16 -7.5t-13 -9t-7.5 -6.5l-44 43q2 2 10.5 9.5t21.5 15.5t30.5 14t37.5 5q50 -3 71 -44q13 -23 13 -50.5t-5 -53.5q35 11 75.5 27t69.5 36l-4 3q-9 4 -18.5 8.5t-20.5 9.5q-29 14 -44.5 33t-21.5 38.5t-4.5 37.5t7.5 31q10 21 27.5 38t38.5 27t44 11.5t44 -8.5
q42 -20 56 -69q10 -33 6 -69t-12 -61q5 -2 10 -3.5t10 -2.5l-18 -59q-6 2 -15 4.5t-19 5.5q-27 -27 -67 -47.5t-78.5 -34t-69 -21.5t-37.5 -9zM327 1912q-15 0 -33 -12t-27 -29l-1.5 -6t0.5 -14.5t9.5 -18.5t26.5 -19q10 -5 20 -9.5t19 -9.5l17 -8q5 17 8.5 45.5t-4.5 51.5
q-7 18 -23 27q-6 2 -12 2z" />
    <glyph glyph-name="uFC5F" unicode="&#x651;&#x64d;" arabic-form="isolated" 
d="M315 1544l23 -57l-299 -119l-23 57zM64 1295l300 115l22 -57l-300 -115zM120 1574h-4q-43 2 -65 17t-31 30q-13 21 -14.5 46t3 47t11 38.5t9.5 22.5l55 -26q-5 -9 -9 -22t-6.5 -26.5t-2 -26t5.5 -21.5q4 -7 14.5 -11.5t23 -6t24 1.5t18.5 12q10 10 14.5 26t6.5 33t1.5 33
t-0.5 26q15 2 27 4q11 2 19.5 2t8.5 -1q5 -45 13 -71t16 -38.5t16.5 -15t15.5 -2.5q29 2 38.5 22t6 47t-16.5 54.5t-28 45.5l51 35q4 -7 16 -26t23 -44.5t16.5 -53.5t-2.5 -52t-20 -41t-26.5 -27.5t-30 -15t-30.5 -4.5q-17 0 -38.5 7t-39.5 30q-33 -48 -89 -48z" />
    <glyph glyph-name="uFC60" unicode="&#x651;&#x64e;" arabic-form="isolated" 
d="M191 1254h-4q-43 2 -65 17t-31 30q-13 21 -14.5 46t3 47t11 38.5t9.5 22.5l55 -26q-5 -9 -9 -22t-6.5 -26.5t-2 -26t5.5 -21.5q4 -7 14.5 -11.5t23 -6t24 1.5t18.5 12q10 10 14.5 26t6.5 33t1.5 33t-0.5 26q15 2 27 4q11 2 19.5 2t8.5 -1q5 -45 13 -71t16 -38.5t16.5 -15
t15.5 -2.5q29 2 38.5 22t6 47t-16.5 54.5t-28 45.5l51 35q4 -7 16 -26t23 -44.5t16.5 -53.5t-2.5 -52t-20 -41t-26.5 -27.5t-30 -15t-30.5 -4.5q-17 0 -38.5 7t-39.5 30q-33 -48 -89 -48zM100 1563l-22 57l296 116l22 -58l-296 -115v0z" />
    <glyph glyph-name="uFC61" unicode="&#x651;&#x64f;" arabic-form="isolated" 
d="M130 1433l-16 60q15 4 39 12t51.5 19.5t54.5 25.5t48 30l-6 3q-9 5 -18.5 9.5t-20.5 9.5q-29 14 -44.5 32.5t-21.5 38t-4.5 38t7.5 31.5q10 20 27.5 37t38.5 27t44 11.5t44 -8.5q42 -19 56 -68q10 -34 6 -70t-12 -61q5 -2 10 -3t10 -3l-18 -59q-6 2 -15 4.5t-19 6.5
q-27 -28 -65 -49.5t-75 -37.5t-65.5 -25t-35.5 -11zM289 1657q10 -5 20 -9.5t19 -9.5l17 -8q5 18 8.5 46t-4.5 51q-8 20 -23 27q-5 3 -12 3q-15 0 -33 -12t-26 -30l-2 -5.5t0 -14.5t9.5 -19t26.5 -19zM223 1196h-4q-43 2 -65 17t-31 30q-13 21 -14.5 46t3 47t11 38.5
t9.5 22.5l55 -26q-5 -9 -9 -22t-6.5 -26.5t-2 -26t5.5 -21.5q4 -7 14.5 -11.5t23 -6t24 1.5t18.5 12q10 10 14.5 26t6.5 33t1.5 33t-0.5 26q15 2 27 4q11 2 19.5 2t8.5 -1q5 -45 13 -71t16 -38.5t16.5 -15t15.5 -2.5q29 2 38.5 22t6 47t-16.5 54.5t-28 45.5l51 35
q4 -7 16 -26t23 -44.5t16.5 -53.5t-2.5 -52t-20 -41t-26.5 -27.5t-30 -15t-30.5 -4.5q-17 0 -38.5 7t-39.5 30q-33 -48 -89 -48z" />
    <glyph glyph-name="uFC62" unicode="&#x651;&#x650;" arabic-form="isolated" 
d="M66 1265l296 116l22 -58l-296 -115zM149 1419h-4q-43 2 -65 17t-31 30q-13 21 -14.5 46t3 47t11 38.5t9.5 22.5l55 -26q-5 -9 -9 -22t-6.5 -26.5t-2 -26t5.5 -21.5q4 -7 14.5 -11.5t23 -6t24 1.5t18.5 12q10 10 14.5 26t6.5 33t1.5 33t-0.5 26q15 2 27 4q11 2 19.5 2
t8.5 -1q5 -45 13 -71t16 -38.5t16.5 -15t15.5 -2.5q29 2 38.5 22t6 47t-16.5 54.5t-28 45.5l51 35q4 -7 16 -26t23 -44.5t16.5 -53.5t-2.5 -52t-20 -41t-26.5 -27.5t-30 -15t-30.5 -4.5q-17 0 -38.5 7t-39.5 30q-33 -48 -89 -48z" />
    <glyph glyph-name="uFDF2" unicode="&#xfedf;&#xfee0;&#xfeea;" horiz-adv-x="1351" arabic-form="isolated" 
d="M1196 820q4 -23 13.5 -73.5t20.5 -116t20.5 -139t15.5 -141.5t5 -125t-11 -89q-22 -66 -78.5 -101t-141.5 -35q-67 0 -122 33.5t-92 92.5q-15 -27 -36 -51q-68 -75 -179 -75h-7q-21 0 -47.5 5t-52.5 17.5t-51 33.5t-43 52q-31 -16 -69 -25.5t-83 -9.5q-14 0 -29.5 1.5
t-30.5 3.5q-42 7 -76 30t-55 58q-21 36 -24.5 76.5t10.5 78.5q11 29 35 58t55.5 56t67 51t68 43t59.5 33t41 21q3 37 5.5 59.5t2.5 24.5l107 -13q0 -1 -4 -37.5t-7.5 -94t-5.5 -129.5t2 -144q3 -52 20.5 -80.5t39.5 -42t41.5 -16.5t27.5 -3h2q64 0 101 40q15 17 25.5 38.5
t17 45t10 47t4.5 44.5q-1 5 -1 11v12v428h108v-391q0 -6 0.5 -20.5t-0.5 -36.5q3 -41 14.5 -80t32.5 -70t50.5 -49.5t67.5 -18.5q36 0 58.5 7.5t35 18t17.5 21t7 16.5q6 19 6.5 59.5t-4 93.5t-12 115.5t-17.5 126t-20.5 124.5t-20.5 111zM214 184q57 -9 97.5 2.5t63.5 26.5
q-3 13 -3 29q-4 56 -3.5 110.5t2.5 104.5q-35 -19 -71 -41.5t-66 -45.5t-51.5 -45.5t-28.5 -40.5q-6 -15 -4.5 -32t10.5 -31q18 -31 54 -37zM808 1106q3 13 2 31t-4 36.5t-7.5 35l-7.5 27.5l53 34q1 -5 7 -22t11 -41.5t6.5 -53.5t-5.5 -56zM762 833h-4q-43 2 -65 17t-31 30
q-13 21 -14.5 46t3 47t11 38.5t9.5 22.5l55 -26q-5 -9 -9 -22t-6.5 -26.5t-2 -26t5.5 -21.5q4 -7 14.5 -11.5t23 -6t24 1.5t18.5 12q10 10 14.5 26t6.5 33t1.5 33t-0.5 26q15 2 27 4q11 2 19.5 2t8.5 -1q5 -45 13 -71t16 -38.5t16.5 -15t15.5 -2.5q29 2 38.5 22t6 47
t-16.5 54.5t-28 45.5l51 35q4 -7 16 -26t23 -44.5t16.5 -53.5t-2.5 -52t-20 -41t-26.5 -27.5t-30 -15t-30.5 -4.5q-17 0 -38.5 7t-39.5 30q-33 -48 -89 -48z" />
    <glyph glyph-name="uFEF5" unicode="&#xfedf;&#xfe82;" horiz-adv-x="861" arabic-form="isolated" 
d="M736 1066q0 -5 3 -41t7 -90t9 -120t9 -130.5t6.5 -121.5t2.5 -92q0 -32 -2.5 -77t-16.5 -95.5t-45.5 -103.5t-88.5 -101.5t-145.5 -89t-217.5 -66.5l-21 105q77 16 135.5 36.5t103.5 44.5q-4 19 -13.5 52.5t-27 83t-45.5 115t-68 149.5q-39 80 -75 154.5t-63.5 132
l-44 92t-16.5 35.5l98 46q0 -1 16.5 -35.5l44 -92t63 -132t74.5 -153.5q64 -133 99.5 -226.5t51.5 -153.5q36 35 56 72t29 73.5t10.5 71t1.5 63.5q0 34 -2.5 90.5t-7 121t-9 131t-9 120t-7 88t-2.5 35.5zM228 1089q-23 0 -43.5 3.5t-40.5 7.5q-27 6 -47 8.5t-36 -2.5
t-29.5 -20.5t-27.5 -46.5l-97 44q27 60 60.5 89t68 38.5t68 5.5t61.5 -10q17 -4 33 -6.5t30 -2.5q27 0 51.5 10t43 22.5t30 23l11.5 10.5l78 -74q-2 -2 -18.5 -17.5t-45 -34t-67 -33.5t-83.5 -15z" />
    <glyph glyph-name="uFEF6" unicode="&#xfee0;&#xfe82;" horiz-adv-x="905" arabic-form="final" 
d="M724 342q0 -7 3.5 -27.5t11.5 -46.5t21.5 -54t33.5 -51.5t47.5 -39t63.5 -15.5v-108q-43 0 -78.5 12.5t-64.5 33t-51.5 48t-38.5 57.5q-23 -42 -59.5 -82.5t-92 -77.5t-132.5 -67t-180 -51l-21 105q77 16 135.5 36.5t103.5 44.5q-4 19 -13.5 53t-27 83.5t-45 115
t-68.5 148.5q-39 80 -74.5 154.5t-63 132l-44 92t-16.5 35.5l97 46q0 -1 16.5 -35.5l44 -92t63 -132t74.5 -153.5q65 -133 100 -226.5t52 -153.5q36 35 55.5 72.5t28.5 74t10.5 70.5t1.5 63q0 34 -2.5 90.5t-7 121.5t-9 131t-9 119.5t-7 88t-2.5 35.5l107 9q0 -5 3 -41
t7 -90t9 -120t9 -130.5t6.5 -121.5t2.5 -92q0 -14 0.5 -30t-0.5 -34zM193 1037q-22 0 -42.5 3.5t-40.5 7.5q-27 6 -47 8.5t-36 -3t-29.5 -21t-27.5 -45.5l-98 44q27 60 60.5 88.5t68.5 38t68.5 5.5t61.5 -10q17 -3 32.5 -5.5t29.5 -2.5q27 0 52 10t43.5 22.5t30 22.5
l11.5 10l77 -74q-1 -2 -18 -17.5t-45.5 -33.5t-67 -33t-83.5 -15z" />
    <glyph glyph-name="uFEF7" unicode="&#xfedf;&#xfe84;" horiz-adv-x="861" arabic-form="isolated" 
d="M732 1057q0 -5 3 -41t7 -90t9 -120t9 -130.5t6.5 -121.5t2.5 -92q0 -32 -2.5 -77t-16.5 -95.5t-45.5 -103.5t-88.5 -101.5t-145.5 -89t-217.5 -66.5l-21 105q77 16 135.5 36.5t103.5 44.5q-4 19 -13.5 52.5t-27 83t-45.5 115t-68 149.5q-39 80 -75 154.5t-63.5 132
l-44 92t-16.5 35.5l98 46q0 -1 16.5 -35.5l44 -92t63 -132t74.5 -153.5q64 -133 99.5 -226.5t51.5 -153.5q36 35 56 72t29 73.5t10.5 71t1.5 63.5q0 34 -2.5 90.5t-7 121t-9 131t-9 120t-7 88t-2.5 35.5zM344 1211q-29 -11 -53.5 -17t-47.5 -8q-17 -3 -42.5 -12t-53 -20.5
t-54.5 -24.5t-48 -23l-33 63q11 5 37.5 18.5t60.5 27.5q-12 8 -21 17q-28 26 -38.5 59t-1.5 64q34 109 146 109q25 0 47 -7.5t39.5 -16.5t28.5 -17t13 -10l-47 -54q-4 3 -12.5 9t-19.5 11.5t-24 9.5t-25 4q-26 0 -46 -11t-31 -49q-3 -8 1.5 -22t18.5 -27q9 -8 32 -19t65 -8
q10 2 14 2q30 5 68 19z" />
    <glyph glyph-name="uFEF8" unicode="&#xfee0;&#xfe84;" horiz-adv-x="910" arabic-form="final" 
d="M729 342q0 -7 3.5 -27.5t11.5 -46.5t21.5 -54t33.5 -51.5t47.5 -39t63.5 -15.5v-108q-43 0 -78.5 12.5t-64.5 33t-51.5 48t-38.5 57.5q-23 -42 -59.5 -82.5t-92 -77.5t-132.5 -67t-180 -51l-21 105q77 16 135.5 36.5t103.5 44.5q-4 19 -13.5 53t-27 83.5t-45 115
t-68.5 148.5q-39 80 -74.5 154.5t-63 132l-44 92t-16.5 35.5l97 46q0 -1 16.5 -35.5l44 -92t63 -132t74.5 -153.5q65 -133 100 -226.5t52 -153.5q36 35 55.5 72.5t28.5 74t10.5 70.5t1.5 63q0 34 -2.5 90.5t-7 121.5t-9 131t-9 119.5t-7 88t-2.5 35.5l107 9q0 -5 3 -41
t7 -90t9 -120t9 -130.5t6.5 -121.5t2.5 -92q0 -14 0.5 -30t-0.5 -34zM343 1167q-28 -11 -53 -17t-47 -8q-17 -3 -42.5 -12t-53 -20.5t-54.5 -24.5t-48 -24l-33 64l37 18.5t61 27.5q-7 5 -12 9t-9 7q-28 26 -38.5 59.5t-1.5 63.5q35 110 146 110q25 0 47 -7.5t39 -16.5
t28 -17t14 -10l-47 -54q-4 3 -12.5 9t-19.5 11.5t-23.5 9.5t-25.5 4q-26 0 -46 -11t-31 -49q-3 -9 1.5 -22.5t18.5 -26.5q9 -9 32 -19.5t65 -7.5q4 1 7.5 1t6.5 1q30 5 68 19z" />
    <glyph glyph-name="uFEF9" unicode="&#xfedf;&#xfe88;" horiz-adv-x="866" arabic-form="isolated" 
d="M732 1030q0 -5 3.5 -40.5t7.5 -90t9 -120.5t9 -130.5t6.5 -121.5t2.5 -92q0 -32 -2.5 -76.5t-16.5 -95t-45.5 -103.5t-88.5 -101.5t-145.5 -89.5t-217.5 -67l-22 106q78 15 136.5 35.5t103.5 44.5q-4 19 -13.5 53t-27 83.5t-45.5 115t-68 148.5q-39 80 -75 154.5
t-63.5 132l-44 92t-16.5 35.5l97 46q0 -1 16.5 -35.5l44 -92t63 -131.5t74.5 -154q65 -133 100.5 -226.5t51.5 -152.5q36 35 55.5 72t28.5 73.5t10.5 70.5t1.5 63q0 34 -2.5 91t-7 121.5t-9 130.5t-9 120t-7 88t-2.5 35zM370 -369q14 2 31 6.5t37 12.5l26 -66
q-29 -11 -53.5 -17.5t-46.5 -8.5q-17 -3 -42.5 -12t-53.5 -20.5t-55 -24.5t-48 -23l-32 64l37 18.5t61 27.5q-15 10 -21 16q-28 26 -39 59t-1 64q35 110 146 110q25 0 47 -7.5t39 -16.5t28 -17.5t13 -10.5l-47 -54q-4 4 -12.5 9.5t-19.5 11t-23.5 9.5t-24.5 4q-26 0 -46 -11
t-32 -49q-2 -8 2 -22t18 -27q10 -8 33 -19t65 -7q5 1 14 1z" />
    <glyph glyph-name="uFEFA" unicode="&#xfee0;&#xfe88;" horiz-adv-x="911" arabic-form="final" 
d="M729 342q0 -7 3.5 -27.5t11.5 -46.5t21.5 -54t33.5 -51.5t48 -39t64 -15.5v-108q-43 0 -78.5 12.5t-64.5 33t-51.5 48t-39.5 57.5q-23 -42 -59 -82.5t-91.5 -77t-132.5 -67t-180 -51.5l-21 105q77 16 135.5 36.5t103.5 44.5q-4 19 -13.5 53t-27 83.5t-45.5 115t-68 148.5
q-39 80 -75 154.5t-63.5 132l-44 92t-16.5 35.5l97 46q0 -1 16.5 -35.5l44 -92t63 -132t74.5 -153.5q65 -133 100.5 -226.5t51.5 -153.5q36 35 55.5 72.5t29 73.5t11 70.5t1.5 63.5q0 34 -2.5 90.5t-7 121.5t-9 131t-9 119.5t-7.5 88t-3 35.5l107 9q0 -5 3 -41l7.5 -90
t9 -120t8.5 -130.5t6.5 -121.5t2.5 -92q0 -14 1 -30t-1 -34zM382 -377q14 2 31 6.5t37 12.5l26 -67q-29 -11 -53.5 -17t-46.5 -8q-17 -3 -42.5 -12t-53.5 -20.5t-55 -24.5t-48 -23l-32 63q10 5 36.5 18.5t61.5 28.5q-7 4 -12 8t-9 8q-28 26 -39 59t-1 64q35 110 146 110
q25 0 47 -7.5t39 -16.5t28 -17.5t13 -10.5l-47 -54q-4 3 -12.5 9t-19.5 11.5t-23.5 9.5t-24.5 4q-27 0 -46.5 -11t-31.5 -49q-2 -9 2 -22.5t18 -26.5q10 -8 33 -19t65 -8q4 1 7 1.5t7 0.5z" />
    <glyph glyph-name="uFEFB" unicode="&#xfedf;&#xfe8e;" horiz-adv-x="871" arabic-form="isolated" 
d="M739 1060q0 -5 3.5 -41t7.5 -90t9 -120t9 -130.5t6.5 -121t2.5 -92.5q0 -32 -2.5 -76.5t-16.5 -95.5t-45.5 -103.5t-88.5 -101.5t-145.5 -89.5t-217.5 -66.5l-22 105q78 16 136.5 36.5t103.5 44.5q-4 19 -13.5 52.5t-27 83t-45.5 115.5t-68 149q-39 80 -75 154.5
t-63.5 132l-44 92t-16.5 35.5l97 46q0 -1 16.5 -35.5l44 -92t63 -132t74.5 -153.5q65 -133 100 -226.5t52 -153.5q36 35 55.5 72.5t28.5 74t10.5 70.5t1.5 63q0 34 -2.5 90.5t-7 121.5t-9 131t-9 119.5t-7 88t-2.5 35.5z" />
    <glyph glyph-name="uFEFC" unicode="&#xfee0;&#xfe8e;" horiz-adv-x="910" arabic-form="final" 
d="M728 342q0 -13 4 -35t12.5 -48.5t23 -53.5t35.5 -48.5t49 -35.5t64 -14v-107q-43 0 -79.5 12t-66.5 33t-53.5 48t-39.5 57q-23 -42 -59.5 -82.5t-92 -77t-132.5 -67t-180 -51.5l-21 106q77 15 135.5 35.5t103.5 44.5q-4 19 -13.5 53t-27 83.5t-45.5 115t-68 148.5
q-39 80 -75 154.5t-63.5 132l-44 92t-16.5 35.5l98 46q0 -1 16.5 -35.5l44 -92t63 -131.5t74.5 -154q64 -133 99.5 -226.5t51.5 -152.5q36 35 56 72t29 73.5t10.5 70.5t1.5 63q0 34 -2.5 91t-7 121.5t-9 130.5t-9 120t-7.5 88t-3 35l107 9q1 -9 3.5 -51t6 -103t7.5 -134
t8 -143t7 -130.5t5 -96.5z" />
    <glyph glyph-name="u0622" unicode="&#x622;" horiz-adv-x="552" arabic-form="isolated" 
d="M195 1033l107 7q2 -28 5 -83t6.5 -127t6.5 -156t5 -170t2 -169t-2.5 -153.5t-9 -123t-16.5 -77.5l-99 42q9 21 13.5 80.5t6 144t-0.5 186t-5.5 206.5t-8.5 207t-10 186zM466 1297l78 -74q-1 -2 -18 -17.5t-45.5 -33.5t-67 -33t-83.5 -15q-22 0 -43 3t-41 8q-27 5 -47 7.5
t-35.5 -2.5t-29 -20.5t-27.5 -46.5l-98 45q27 60 60.5 88.5t68.5 38t68.5 5.5t61.5 -10q17 -4 32.5 -6.5t29.5 -2.5q27 0 52 10t43.5 22.5t29.5 23z" />
    <glyph glyph-name="u0623" unicode="&#x623;" horiz-adv-x="477" arabic-form="isolated" 
d="M242 1032l108 7q2 -28 4.5 -83t6 -127t6 -155.5t4.5 -169.5t1.5 -169t-3 -153.5t-9 -123t-16.5 -77.5l-100 41q9 21 14 81t6.5 144t0 185.5t-4.5 206.5t-8 207t-10 186zM412 1223q-29 -11 -53.5 -17t-46.5 -8q-17 -3 -42.5 -12t-53.5 -20.5t-55 -24.5t-48 -24l-32 64
l37 18.5t61 27.5q-7 5 -12 9t-9 7q-28 26 -39 59.5t-1 63.5q35 110 146 110q25 0 47 -7.5t39 -16.5t28 -17t13 -10l-47 -54q-4 3 -12.5 9t-19.5 11.5t-23.5 9.5t-24.5 4q-27 0 -46.5 -11.5t-31.5 -48.5q-2 -9 2.5 -22.5t18.5 -26.5q9 -8 32 -19t65 -8q4 1 7 1.5t7 0.5
q30 5 68 19z" />
    <glyph glyph-name="u0624" unicode="&#x624;" horiz-adv-x="698" arabic-form="isolated" 
d="M634 56q3 -95 -25.5 -170.5t-73.5 -133.5t-99 -99t-101 -67.5t-81 -40t-38 -14.5l-33 103q3 1 27.5 10.5t60.5 28.5t77 48t78 69.5t64 93t34 117.5q-13 -1 -27.5 -1h-31.5h-102q-72 0 -121 21.5t-80 55t-44.5 75.5t-13.5 83q0 55 19 112t53 103t79 75t98 29
q60 0 104 -26.5t74.5 -69t50 -96.5t30.5 -109t16 -106.5t6 -88.5v-2zM465 108h58q-2 28 -6.5 64.5t-13 74t-21 73.5t-30.5 64t-42.5 45t-56.5 17q-25 0 -50 -19t-45.5 -49t-33 -67.5t-12.5 -75.5q0 -18 5 -40t21 -41.5t45.5 -32.5t79.5 -13h102zM137 632l-33 64
q11 5 37.5 18t60.5 28q-15 10 -21 16q-27 26 -38 59t-2 64q35 110 146 110q25 0 47.5 -7.5t39.5 -16.5t28 -17.5t13 -10.5l-47 -54q-8 8 -31.5 21t-49.5 13t-46 -11t-31 -49q-3 -8 1.5 -22t18.5 -26q9 -9 32.5 -20t64.5 -7q4 1 7.5 1h6.5q15 2 32 6.5t36 12.5l27 -66
q-56 -22 -100 -25q-17 -3 -42.5 -12.5t-53.5 -21t-55 -24.5t-48 -23z" />
    <glyph glyph-name="u0625" unicode="&#x625;" horiz-adv-x="452" arabic-form="isolated" 
d="M219 13q9 21 13.5 81.5t6 145.5t0.5 188t-4.5 209t-8 209t-9.5 187l107 6q2 -28 5 -83t6.5 -127t7 -155.5t5.5 -169.5t2.5 -169t-2.5 -153.5t-9 -123t-16 -77.5zM377 -285l27 -66q-29 -11 -53.5 -17.5t-46.5 -8.5q-17 -3 -42.5 -12t-53.5 -20.5t-55 -24.5t-48 -23l-33 64
q11 5 37.5 18.5t60.5 27.5q-7 4 -12 8t-9 8q-28 26 -38.5 59t-0.5 64q35 110 145 110q25 0 47.5 -7.5t39.5 -16.5t28 -17.5t13 -10.5l-47 -54q-8 8 -31.5 21t-49.5 13t-45.5 -11t-31.5 -48q-3 -9 1.5 -23t18.5 -26q10 -9 33 -20t64 -7q4 1 7.5 1h6.5q15 2 32 6.5t36 12.5z
" />
    <glyph glyph-name="u0626" unicode="&#x626;" horiz-adv-x="1255" arabic-form="isolated" 
d="M881 395q-33 -24 -61.5 -54.5t-49 -63.5t-31 -65t-8.5 -58q2 -27 13 -44t32.5 -28.5t53.5 -18.5t76 -14q36 -6 76 -14.5t73 -27.5t54.5 -51t20.5 -84q-1 -40 -22 -80.5t-59 -78t-91.5 -70.5t-119 -57t-142.5 -38t-161 -14q-264 0 -372 159q-77 114 -65 295t112 430
l100 -41q-56 -137 -79.5 -240t-25.5 -178t12 -125t35 -81q77 -112 283 -112q112 0 202.5 25t153.5 61t97 76.5t35 71.5q0 14 -5.5 24t-20.5 17.5t-41 13.5t-67 12q-38 6 -82 15.5t-83 31t-67 59t-33 98.5q-4 46 11.5 93.5t43 92.5t64 84t75.5 67q50 36 96.5 53.5t88 23.5
t76.5 2.5t60.5 -10t40 -13.5t16.5 -8l-26 -47l-26 -48q-2 1 -23 9.5t-56.5 10t-83 -10t-100.5 -50.5zM348 496l-33 64q11 5 37.5 18t60.5 28q-6 5 -11 8.5t-10 7.5q-27 26 -38 59t-1 64q35 110 146 110q25 0 47 -7.5t39 -16.5t28 -17.5t13 -10.5l-47 -54q-4 4 -12.5 9.5
t-19.5 11t-23.5 9.5t-24.5 4q-27 0 -46.5 -11t-31.5 -49q-2 -8 2 -22t18 -27q10 -8 33 -19t65 -7q4 0 7 0.5t7 0.5q14 2 31 6.5t37 12.5l26 -66q-56 -22 -100 -25q-17 -3 -42.5 -12.5t-53.5 -21t-55 -24.5t-48 -23z" />
    <glyph glyph-name="u0627" unicode="&#x627;" horiz-adv-x="336" arabic-form="isolated" 
d="M231 1040q2 -28 5 -83.5t6.5 -127.5t6.5 -156.5t5 -170.5t1.5 -169.5t-3 -154t-9 -123.5t-16.5 -78l-99 29q9 21 13.5 82t6 147t0 189.5t-5 210.5t-8.5 210.5t-10 187.5z" />
    <glyph glyph-name="u0628" unicode="&#x628;" horiz-adv-x="1431" arabic-form="isolated" 
d="M1281 572q6 -12 19 -39t27 -63t27 -77.5t18.5 -84t1.5 -82t-24 -70.5q-23 -36 -71 -62.5t-110 -46t-132 -32.5t-136.5 -20.5t-123.5 -10.5t-93 -3q-28 0 -69 1t-89 5.5t-100 15.5t-100.5 30.5t-91 49.5t-71.5 74q-51 75 -49 177.5t56 231.5l99 -41q-85 -206 -16 -309
q21 -32 55 -53.5t74 -35.5t83.5 -22t84 -11.5t76 -4t58.5 -0.5q94 0 190 10.5t176.5 28t137 40t71.5 46.5q12 19 9 56.5t-15 82t-30.5 89.5t-36.5 80zM672 -298l96 96l98 -97l-97 -96z" />
    <glyph glyph-name="u0629" unicode="&#x629;" horiz-adv-x="683" arabic-form="isolated" 
d="M349 0q-49 0 -97 14t-86.5 42t-62 69t-23.5 94q0 51 12.5 99t31 89t40 75t38.5 57l-17 5l29 104q4 -1 36 -11.5t77 -32t97 -54t96 -79t73 -106.5t29 -136q0 -39 -11 -80t-41 -74t-83.5 -54t-137.5 -21zM305 495q-11 -14 -31 -41t-39 -63.5t-33 -80.5t-14 -91
q0 -30 16.5 -51.5t40.5 -35t52 -19.5t52 -6q90 0 127.5 27.5t37.5 94.5q0 49 -19.5 90t-50 74t-67.5 58.5t-72 43.5zM115 780q11 5 37.5 18t60.5 28q-15 10 -21 16q-27 26 -38 59t-2 64q35 110 146 110q25 0 47.5 -7.5t39.5 -16.5t28 -17.5t13 -10.5l-47 -54q-8 8 -31.5 21
t-49.5 13t-46 -11t-31 -49q-3 -8 1.5 -22t18.5 -26q9 -9 32.5 -20t64.5 -7q4 1 7.5 1h6.5q15 2 32 6.5t36 12.5l27 -66q-56 -22 -100 -25q-17 -3 -42.5 -12.5t-53.5 -21t-55 -24.5t-48 -23z" />
    <glyph glyph-name="u062A" unicode="&#x62a;" horiz-adv-x="1428" arabic-form="isolated" 
d="M1276 570q6 -12 19 -39t27 -63t27 -78t18.5 -84t1 -81.5t-23.5 -70.5q-23 -36 -71 -62.5t-110 -46t-132 -32.5t-136.5 -20.5t-123.5 -10.5t-93 -3q-28 0 -69 1t-89 5.5t-100 15t-100.5 30t-91 49.5t-71.5 74q-101 153 7 410l99 -42q-85 -204 -16 -308q21 -32 55 -54
t74 -36t83.5 -22t84 -11.5t76 -4t58.5 -0.5q94 0 190 10.5t176.5 28t137 40t71.5 46.5q12 20 9 57.5t-15 81.5t-30.5 89.5t-36.5 80.5zM734 700l-97 -96l-97 97l96 96zM947 700l-96 -96l-97 97l96 96z" />
    <glyph glyph-name="u062B" unicode="&#x62b;" horiz-adv-x="1426" arabic-form="isolated" 
d="M1296 570q6 -12 19 -39t27.5 -63t27 -77.5t18 -84t1 -82t-23.5 -70.5q-23 -36 -71 -62.5t-110 -46t-132 -32.5t-136.5 -20.5t-123.5 -10.5t-93 -3q-28 0 -69 1t-89 5.5t-100 15.5t-100.5 30.5t-91 49.5t-71.5 74q-51 75 -49 177.5t56 231.5l99 -41q-85 -206 -16 -309
q21 -32 55 -53.5t74 -35.5t83.5 -22t84 -11.5t75.5 -4t59 -0.5q94 0 190 10.5t176.5 28t137 40t71.5 46.5q12 19 9 56.5t-15 82t-30.5 89.5t-36.5 80zM899 514l-98 97l97 96l97 -96zM767 611l-97 -97l-97 97l96 96zM880 812l-96 -97l-98 98l97 95z" />
    <glyph glyph-name="u062C" unicode="&#x62c;" horiz-adv-x="1175" arabic-form="isolated" 
d="M1089 -327l47 -97q-99 -48 -202 -71.5t-203 -23.5q-93 0 -176 20.5t-149 62.5q-94 59 -142 150t-48 209q0 81 26.5 146t72 117t105.5 91t127 68t137.5 48.5t135.5 32.5q-56 21 -99.5 42t-79.5 40q-45 23 -79 38t-65 15q-29 0 -62 -12t-56 -32q-23 -19 -40.5 -41t-30 -41
t-19 -32l-6.5 -13l-98 46q1 1 9.5 17.5t24 40.5t38.5 52t53 53q38 32 88.5 51t98.5 19q51 0 95.5 -19t97.5 -46q34 -18 75 -38t93 -39.5t117 -37t146 -30.5l-7 -107q-2 0 -36.5 -1.5t-90.5 -8t-127 -18.5t-144.5 -33.5t-144 -52.5t-126 -75.5t-89 -104t-33.5 -135.5
q0 -181 140 -268q57 -36 131 -52.5t156.5 -14.5t169 23.5t169.5 61.5zM743 -184l-103 102l102 102l102 -103z" />
    <glyph glyph-name="u062D" unicode="&#x62d;" horiz-adv-x="1170" arabic-form="isolated" 
d="M1091 -350l47 -97q-99 -48 -202 -71.5t-203 -23.5q-93 0 -176 20.5t-149 62.5q-94 59 -142 150t-48 209q0 81 26.5 146t72 117t105.5 91t127 68t137 48.5t136 32.5q-56 21 -99.5 42t-79.5 40q-45 23 -79 38t-65 15q-29 0 -62 -12t-56 -32q-23 -19 -40.5 -41t-30 -41
t-19 -32l-6.5 -13l-98 46q1 1 9.5 17.5t24 40.5t38.5 52t53 53q38 32 88.5 51t98.5 19q51 0 95.5 -19t97.5 -46q34 -18 75 -38t93 -39.5t117 -37t146 -30.5l-7 -107q-2 0 -36.5 -1.5t-90.5 -8t-127 -18.5t-144.5 -33.5t-144 -52.5t-126 -75.5t-89 -104t-33.5 -135.5
q0 -181 140 -268q57 -36 131 -52.5t156.5 -14.5t169 23.5t169.5 61.5z" />
    <glyph glyph-name="u062E" unicode="&#x62e;" horiz-adv-x="1170" arabic-form="isolated" 
d="M1042 -337l47 -97q-99 -48 -202 -71.5t-203 -23.5q-93 0 -176 20.5t-149 62.5q-94 59 -142 150t-48 209q0 81 26.5 146t72 117t105.5 91t127 68t137.5 48.5t135.5 32.5q-56 21 -99.5 42t-79.5 40q-45 23 -79 38t-65 15q-29 0 -62 -12t-56 -32q-23 -19 -40.5 -41t-30 -41
t-19 -32l-6.5 -13l-98 46q1 1 9.5 17.5t24 40.5t38.5 52t53 53q38 32 88.5 51t98.5 19q51 0 95.5 -19t97.5 -46q34 -18 75 -38t93 -39.5t117 -37t146 -30.5l-7 -107q-2 0 -36.5 -1.5t-90.5 -8t-127 -18.5t-144.5 -33.5t-144 -52.5t-126 -75.5t-89 -104t-33.5 -135.5
q0 -181 140 -268q57 -36 131 -52.5t156.5 -14.5t169 23.5t169.5 61.5zM630 882l-101 -101l-103 102l102 102z" />
    <glyph glyph-name="u062F" unicode="&#x62f;" horiz-adv-x="768" arabic-form="isolated" 
d="M365 -9q-65 0 -118 13t-91 29t-60 29.5t-24 14.5l62 87l17 -10t47.5 -22.5t73 -22.5t93.5 -10q115 0 178 36.5t63 102.5q0 60 -22 115t-55.5 103t-72 87.5t-72 68t-56.5 44t-24 16.5l58 90q4 -2 31.5 -21t66.5 -52.5t83.5 -80.5t82 -104.5t62.5 -124.5t25 -141
q0 -15 -3.5 -38.5t-15 -51t-34.5 -55.5t-61.5 -50.5t-95.5 -37t-138 -14.5z" />
    <glyph glyph-name="u0630" unicode="&#x630;" horiz-adv-x="793" arabic-form="isolated" 
d="M361 773q4 -2 33 -21.5t71 -53t89.5 -80t88 -104t67.5 -125t27 -141.5q0 -15 -3.5 -38.5t-15 -51t-34.5 -55.5t-61.5 -50.5t-95.5 -37t-138 -14.5q-68 0 -121 20t-90 45t-57 46.5t-21 23.5l84 66q1 -1 15.5 -16t40.5 -32t63.5 -31.5t85.5 -14.5q115 0 178 36.5t63 103.5
q0 59 -24 114t-59.5 103t-77.5 87.5t-78 68t-60 44.5t-25 16zM468 1037l-97 -96l-97 97l96 96z" />
    <glyph glyph-name="u0631" unicode="&#x631;" horiz-adv-x="618" arabic-form="isolated" 
d="M90 -441l-46 98q1 0 28 14t66.5 39.5t85 62.5t85 84t65.5 103t26 120q0 34 -13.5 82t-32.5 96t-38.5 90.5t-31.5 65.5l96 50q3 -7 14 -28.5t25 -53t29.5 -70t28.5 -79t21.5 -80t8.5 -73.5q0 -81 -29.5 -150.5t-74.5 -126.5t-98 -101.5t-99.5 -75.5t-79 -48t-36.5 -19z
" />
    <glyph glyph-name="u0632" unicode="&#x632;" horiz-adv-x="647" arabic-form="isolated" 
d="M394 441q3 -6 14 -27.5t25 -53t30 -70t29 -79.5t21.5 -80.5t8.5 -73.5q0 -81 -30 -150.5t-75 -126.5t-98 -101.5t-99.5 -75.5t-79 -48t-36.5 -19l-45 98q1 0 27.5 14t66 39.5t85.5 62.5t85 84t65 103t26 120q0 34 -13.5 82t-32 96t-38 90.5t-31.5 65.5zM452 745l-97 -97
l-97 98l96 96z" />
    <glyph glyph-name="u0633" unicode="&#x633;" horiz-adv-x="2013" arabic-form="isolated" 
d="M1854 600q4 -8 17 -36t27.5 -69t28 -90.5t18.5 -101.5t-2 -102.5t-32 -92.5q-67 -108 -232 -108q-57 0 -113 33.5t-95 91.5q-32 -55 -87 -90t-144 -35q-39 0 -71 11.5t-58 29.5q-3 -243 -129.5 -367t-370.5 -124q-22 0 -67 4t-99 19t-109 45t-97 82q-110 135 -60 363
q10 44 24.5 91.5t29 87t25 65.5t11.5 29l99 -42l-10 -24.5t-23.5 -62t-27.5 -82t-23 -85.5q-38 -178 38 -273q32 -39 76.5 -61t87.5 -33t78 -13.5t47 -2.5q199 0 295.5 97t96.5 297q0 57 -12 112t-27 98t-27.5 69.5t-12.5 27.5l96 49q2 -3 18.5 -40t35.5 -96l5 1q0 -1 4 -13
t12 -30.5t21 -39.5t31 -39t41 -30t52 -12q34 0 67 9t59.5 43.5t43 102.5t16.5 186h108q0 -35 -2 -71.5t-7 -73.5q1 -45 16.5 -81.5t38 -62t49.5 -39t50 -13.5q106 0 140 56q15 25 18.5 58.5t0 70.5t-13.5 75.5t-21.5 73.5t-23.5 63.5t-21 45.5z" />
    <glyph glyph-name="u0634" unicode="&#x634;" horiz-adv-x="2008" arabic-form="isolated" 
d="M1842 608q4 -8 17 -36t27.5 -69t28 -90.5t18.5 -101.5t-2 -102.5t-32 -92.5q-67 -108 -232 -108q-57 0 -113 33.5t-95 91.5q-32 -55 -87 -90t-144 -35q-39 0 -71 11.5t-58 29.5q-3 -243 -129.5 -367t-370.5 -124q-22 0 -67 4t-99 19t-109 45t-97 82q-110 135 -60 363
q10 44 24.5 91.5t29 87t25 65.5t11.5 29l99 -42l-10 -24.5t-23.5 -62t-27.5 -82t-23 -85.5q-38 -178 38 -273q32 -39 76.5 -61t87.5 -33t78 -13.5t47 -2.5q199 0 295.5 97t96.5 297q0 57 -12 112t-27 98t-27.5 69.5t-12.5 27.5l96 49q2 -3 18.5 -40t35.5 -96l5 1q0 -1 4 -13
t12 -30.5t21 -39.5t31 -39t41 -30t52 -12q34 0 67 9t59.5 43.5t43 102.5t16.5 186h108q0 -35 -2 -71.5t-7 -73.5q1 -45 16.5 -81.5t38 -62t49.5 -39t50 -13.5q106 0 140 56q15 25 18.5 58.5t0 70.5t-13.5 75.5t-21.5 73.5t-23.5 63.5t-21 45.5zM1433 768l-91 -92l-93 93
l92 91zM1543 963l-91 -92l-92 93l91 91zM1563 676l-91 93l90 91l93 -92z" />
    <glyph glyph-name="u0635" unicode="&#x635;" horiz-adv-x="2023" arabic-form="isolated" 
d="M1898 476q33 -35 49 -80t13 -96q-3 -60 -33.5 -117.5t-89 -102.5t-145.5 -72.5t-205 -27.5q-19 0 -64 1.5t-102 8t-119 19t-115 34.5v-3q0 -248 -126.5 -374.5t-373.5 -126.5q-22 0 -67 4t-99 19t-109 45t-97 82q-110 135 -60 363q10 45 26.5 92.5t32.5 87t28.5 66
t13.5 28.5l97 -47l-11.5 -24.5t-26.5 -61t-30.5 -80.5t-24.5 -84q-38 -177 39 -272q31 -39 75.5 -61.5t87.5 -33.5t78 -13.5t47 -2.5q199 0 296 97t97 297q0 57 -13 112.5t-28.5 99.5t-29 71.5t-13.5 28.5l95 50q1 -2 10 -20.5t21.5 -49t26 -70.5t23.5 -86q6 -7 14 -12.5
t18 -10.5q22 28 57 69t79.5 85.5t98 88.5t112.5 79t122.5 57t128.5 22q60 0 110.5 -20t85.5 -58zM1853 306q3 57 -33 96q-42 45 -118 45q-62 0 -127.5 -29t-129.5 -75.5t-123.5 -106t-108.5 -119.5q66 -15 139.5 -22.5t134.5 -7.5q91 0 159 19t113 49.5t68 70t26 80.5z" />
    <glyph glyph-name="u0636" unicode="&#x636;" horiz-adv-x="2028" arabic-form="isolated" 
d="M1895 472q33 -35 48.5 -80t13.5 -96q-4 -60 -34 -117.5t-88.5 -102.5t-146 -72.5t-204.5 -27.5q-19 0 -64 1.5t-102 8t-119 19t-115 34.5v-3q0 -248 -126.5 -374.5t-373.5 -126.5q-22 0 -67 4t-99 19t-109 45t-97 82q-110 135 -60 363q10 45 26.5 92.5t32.5 87t28.5 66
t13.5 28.5l96 -47l-11 -24.5t-26 -61t-30.5 -80.5t-24.5 -84q-38 -178 38 -272q32 -40 76.5 -62t87.5 -33t77.5 -13.5t47.5 -2.5q199 0 295.5 97t96.5 297q0 57 -13 112.5t-28.5 99.5t-28.5 71.5t-13 28.5l95 50q1 -2 10 -20.5t21.5 -49t25.5 -71t23 -86.5q12 -11 33 -22
q22 28 56.5 69t79.5 85.5t98 88.5t112.5 79t123 57t128.5 22q60 0 110 -20t86 -58zM1849 302q3 58 -33 97q-20 21 -50 32.5t-67 11.5q-62 0 -127.5 -29t-129.5 -75.5t-124 -106t-109 -119.5q66 -15 140 -22.5t135 -7.5q91 0 158.5 19t112.5 49.5t68.5 70t25.5 80.5z
M1808 835l-102 -101l-101 102l101 102z" />
    <glyph glyph-name="u0637" unicode="&#x637;" horiz-adv-x="1124" arabic-form="isolated" 
d="M993 545q59 -42 85.5 -108.5t15.5 -142.5q-7 -44 -25 -84t-45.5 -73t-63 -58t-76.5 -38q-48 -16 -88 -25.5t-74 -15t-65 -7t-61 -1.5q-14 0 -27.5 0.5t-27.5 0.5q-16 0 -33 0.5t-35 0.5q-118 0 -197 7.5t-127 17t-70 18.5t-26 11l26 47l25 48q1 -1 31 -10.5t105 -19.5
q11 17 39.5 56.5t69.5 88.5q8 25 11 73t2 110t-4.5 135t-9.5 149t-13 151.5t-14 142.5l107 11q4 -35 11.5 -105.5t15 -159.5t12 -187t2.5 -188q11 10 21 20t21 19q66 59 132.5 96.5t129 52.5t119 7t101.5 -40zM988 310q7 46 -8 84.5t-49 62.5q-29 20 -68 22.5t-84.5 -11.5
t-95.5 -44t-100 -75q-34 -30 -65.5 -63t-59.5 -65.5t-51.5 -62.5t-41.5 -54q24 -2 51 -2h57q19 0 36 -0.5t34 -0.5q37 -1 70 -1t68.5 4t76 13t93.5 26t90.5 63t46.5 104z" />
    <glyph glyph-name="u0638" unicode="&#x638;" horiz-adv-x="1245" arabic-form="isolated" 
d="M1081 546q59 -42 85.5 -108t15.5 -143q-7 -44 -25 -84t-45.5 -73t-63 -58t-76.5 -38q-48 -15 -88 -24.5t-74 -15t-65 -7t-61 -1.5h-55q-16 1 -33 1h-35q-118 0 -197 7.5t-127 17.5t-70 18.5t-26 10.5l26 47l25 48q1 0 31 -10t105 -19q11 17 39.5 56t69.5 88q8 25 11 73.5
t2.5 111t-4.5 136.5t-9.5 150.5t-12.5 152.5t-14 143l107 10q2 -23 6.5 -63t9.5 -92t10 -112.5t8.5 -124.5t5 -128.5t0.5 -124.5q11 11 21 20.5t21 19.5q66 58 132.5 95.5t129 52.5t119 7t101.5 -40zM1076 311q7 47 -8 85t-49 62q-29 20 -68 22.5t-84.5 -11.5t-95.5 -43.5
t-100 -74.5q-34 -30 -65.5 -63t-59.5 -66t-51.5 -63t-41.5 -54q24 -1 51 -1.5t57 -0.5q19 0 36 -0.5t34 -0.5q37 -1 70 -0.5t68.5 4t76 13t93.5 26.5t90.5 62.5t46.5 103.5zM1020 865l-102 -101l-102 102l101 102z" />
    <glyph glyph-name="u0639" unicode="&#x639;" horiz-adv-x="1004" arabic-form="isolated" 
d="M601 220q-44 -6 -93.5 -24.5t-97.5 -46t-92 -62t-77.5 -71.5t-53.5 -74.5t-20 -72.5q0 -75 31 -129.5t81 -90t113 -53t126 -17.5q73 0 139 12.5t116.5 28t81 28.5l30.5 13l47 -97q-3 -2 -37.5 -16.5t-91 -31t-130 -30.5t-155.5 -14q-86 0 -168 25.5t-146.5 75.5t-104 124
t-39.5 172q0 55 26 110.5t69.5 107t100.5 96t119 77.5q-35 17 -60 37q-92 72 -92 189q0 38 19.5 84t58 86.5t94.5 67.5t130 27q58 0 107.5 -17.5t86 -39t58 -40t23.5 -20.5l-75 -76l38 38l-38 -38l-16 13.5t-43.5 29.5t-63.5 29.5t-77 13.5q-50 0 -86 -18t-60 -43
t-35.5 -52.5t-12.5 -45.5q2 -36 13.5 -60t37.5 -44q35 -28 89.5 -41.5t123.5 -11.5h15q42 2 88 8.5t97 19.5l25 -105q-65 -10 -107 -16t-66.5 -9t-34.5 -4.5t-11 -1.5z" />
    <glyph glyph-name="u063A" unicode="&#x63a;" horiz-adv-x="989" arabic-form="isolated" 
d="M601 220q-44 -6 -93.5 -24.5t-97.5 -46t-92 -62t-77.5 -71.5t-53.5 -74.5t-20 -72.5q0 -75 31 -129.5t81 -90t113 -53t126 -17.5q73 0 139 12.5t116.5 28t81 28.5l30.5 13l47 -97q-3 -2 -37.5 -16.5t-91 -31t-130 -30.5t-155.5 -14q-86 0 -168 25.5t-146.5 75.5t-104 124
t-39.5 172q0 55 26 110.5t69.5 107t100.5 96t119 77.5q-35 17 -60 37q-92 72 -92 189q0 38 19.5 84t58 86.5t94.5 67.5t130 27q58 0 107.5 -17.5t86 -39t58 -40t23.5 -20.5l-75 -76l38 38l-38 -38l-16 13.5t-43.5 29.5t-63.5 29.5t-77 13.5q-50 0 -86 -18t-60 -43
t-35.5 -52.5t-12.5 -45.5q2 -36 13.5 -60t37.5 -44q35 -28 89.5 -41.5t123.5 -11.5h15q42 2 88 8.5t97 19.5l25 -105q-65 -10 -107 -16t-66.5 -9t-34.5 -4.5t-11 -1.5zM673 1016l-102 -102l-102 103l102 101z" />
    <glyph glyph-name="u0641" unicode="&#x641;" horiz-adv-x="1406" arabic-form="isolated" 
d="M1254 632q31 -36 53.5 -82t35 -97t15.5 -106t-6 -110t-43 -95t-85.5 -68.5t-115.5 -46t-131.5 -27.5t-134.5 -13.5t-124 -3.5h-47t-41 1l-4 1q-362 0 -476 164q-36 51 -45 106t-3.5 107.5t20 98t25.5 76.5l4 12l102 -36l-5 -13q-10 -26 -21.5 -62t-17 -75.5t-0.5 -79
t29 -72.5q41 -59 139.5 -89t249.5 -30h7q72 -3 144 -1t138 9.5t123.5 20t101.5 31.5t71.5 44t32.5 56q-32 -8 -72.5 -15t-83.5 -7q-149 3 -215 87q-60 75 -33 200q9 38 28.5 74.5t50 65.5t71.5 46.5t91 17.5q47 0 91 -23t81 -66zM1090 338q23 0 45.5 2.5t43.5 6.5t39 9t31 9
q-6 57 -25.5 108.5t-51.5 88.5q-43 51 -90 51q-32 0 -56 -12.5t-40.5 -30.5t-26 -39t-13.5 -38q-17 -74 12 -110q36 -43 132 -45zM1189 1016l-101 -101l-103 102l102 102z" />
    <glyph glyph-name="u0642" unicode="&#x642;" horiz-adv-x="1130" arabic-form="isolated" 
d="M1072 66v-15q0 -246 -127 -373.5t-373 -127.5q-22 0 -67 4t-98.5 19t-109 45t-97.5 82q-109 136 -59 363q9 44 24 91.5t29 87t24.5 66t11.5 28.5l100 -42l-10 -24.5t-23.5 -62t-27.5 -82t-23 -85.5q-39 -177 38 -272q32 -39 76.5 -61.5t87 -33.5t77.5 -13.5t47 -2.5
q186 0 282.5 84.5t108.5 258.5h-27t-30 -1h-103q-71 0 -120.5 21.5t-80 55.5t-44 75.5t-13.5 82.5q0 55 19 112t53 103t79 75t98 29q62 0 112 -32.5t85.5 -95t56 -153t24.5 -206.5zM906 107h56q-2 28 -6.5 64.5t-13 74t-21 73.5t-30 64.5t-42 45.5t-55.5 17q-26 0 -51 -19
t-45 -49t-32.5 -68t-12.5 -76q0 -18 5 -40t21 -41.5t45.5 -32.5t78.5 -13h103zM781 791l-96 -95l-97 96l95 97zM989 791l-96 -95l-97 96l96 97z" />
    <glyph glyph-name="u0643" unicode="&#x643;" horiz-adv-x="1531" arabic-form="isolated" 
d="M1032 736q23 -20 54 -49t64 -64.5t64.5 -76.5t56.5 -85t40.5 -90.5t15.5 -92.5q0 -64 -26.5 -110t-74 -78.5t-113 -52.5t-143 -30.5t-164.5 -14.5t-177 -4q-98 0 -175 8t-136 25t-101.5 43t-71.5 63q-54 67 -62.5 169.5t26.5 257.5l105 -24q-29 -127 -25 -208.5
t40 -127.5q40 -51 136.5 -75t263.5 -24q130 0 224.5 7.5t160 20t105.5 30t62.5 38t30 43t7.5 44.5q0 37 -16 77t-42.5 80.5t-59 78.5t-65.5 71.5t-63 59.5t-51 42l-29 22l28 96l608 266l43 -98z" />
    <glyph glyph-name="u0644" unicode="&#x644;" horiz-adv-x="1074" arabic-form="isolated" 
d="M528 -424q-111 0 -197 45t-134 126q-23 39 -37.5 94t-10.5 128.5t32.5 167t93.5 208.5l94 -53q-88 -155 -108 -280.5t29 -210.5q33 -56 95 -86.5t143 -30.5q91 0 160.5 27t116.5 71t70.5 100t23.5 114q0 34 -1.5 96.5t-3.5 140.5t-5 166t-6 175.5t-6 167.5t-5 141.5
t-3.5 98.5t-1.5 39l107 5q0 -7 2 -47t4 -102.5t5 -142.5t6 -166.5t5.5 -173.5t4.5 -163.5t3.5 -138t1.5 -96.5q0 -76 -31 -151t-91.5 -135t-149.5 -97t-206 -37z" />
    <glyph glyph-name="u0645" unicode="&#x645;" horiz-adv-x="884" arabic-form="isolated" 
d="M139 -477q-5 117 -8 197.5t-5 134t-3.5 83t-2 45t-1 20t-0.5 7.5q-1 24 -1.5 54.5t5 61t19.5 58.5t43 47q55 35 143 13q9 20 23.5 50t34 63t44 66t52.5 59.5t59.5 43t65.5 16.5q69 0 114 -31.5t71.5 -77.5t37 -99t10.5 -95q0 -26 -2.5 -55.5t-10.5 -58t-24 -53.5t-43 -41
q-27 -17 -62 -21t-80.5 5t-103.5 32t-131 60q-38 19 -64 27.5t-42 10t-23.5 -0.5t-9.5 -3q-9 -6 -13 -21.5t-5 -34.5t-0.5 -38t1.5 -31l19 -488zM428 205q1 -1 1.5 -1t1.5 -1q69 -35 117 -53.5t79.5 -26.5t49.5 -7t27 7q5 3 10 10t9 20.5t6.5 34t2.5 51.5q0 5 -1 21.5
t-4.5 38t-11 46t-21.5 44.5t-35.5 33t-51.5 13q-18 0 -41 -20t-47.5 -52t-48 -73.5t-42.5 -84.5z" />
    <glyph glyph-name="u0646" unicode="&#x646;" horiz-adv-x="1115" arabic-form="isolated" 
d="M927 446q1 -2 9 -19.5t20 -46t25.5 -66t25 -80t19 -88t7.5 -89.5q0 -248 -126 -375t-373 -127q-22 0 -67 4t-99 19t-109.5 45t-97.5 82q-109 136 -59 363q10 45 28.5 97t37 97t32.5 75.5t16 33.5l97 -47l-6.5 -13.5t-16.5 -35.5t-22 -50.5t-23.5 -59.5t-21.5 -62t-16 -58
q-39 -177 38 -272q32 -39 76.5 -61.5t87.5 -33t77.5 -13t47.5 -2.5q198 0 295 97t97 297q0 57 -14.5 116.5t-32.5 109t-33 81.5t-15 33zM682 628l-101 -101l-103 102l102 102z" />
    <glyph glyph-name="u0647" unicode="&#x647;" horiz-adv-x="641" arabic-form="isolated" 
d="M322 0q-49 0 -97 14t-86.5 42t-62 69t-23.5 94q0 51 12.5 99t31 89t40 75t38.5 57l-17 5l29 104q4 -1 36 -11.5t77 -32t97 -54t96 -79t73 -106.5t29 -136q0 -39 -11 -80t-41 -74t-83.5 -54t-137.5 -21zM278 495q-11 -14 -31 -41t-39 -63.5t-33 -80.5t-14 -91
q0 -30 16.5 -51.5t40.5 -35t52 -19.5t52 -6q90 0 127.5 27.5t37.5 94.5q0 49 -19.5 90t-50 74t-67.5 58.5t-72 43.5z" />
    <glyph glyph-name="u0648" unicode="&#x648;" horiz-adv-x="688" arabic-form="isolated" 
d="M205 -469l-33 103q3 1 27.5 10.5t60.5 28.5t77 48t78 69.5t64 93t34 117.5q-13 -1 -27.5 -1h-31.5h-102q-72 0 -121 21.5t-80 55t-44.5 75.5t-13.5 83q0 55 19 112t53 103t79 75t98 29q60 0 104 -26.5t74.5 -69t50 -96.5t30.5 -109t16 -106.5t6 -88.5v-2
q3 -95 -25.5 -170.5t-73.5 -133.5t-99 -99t-101 -67.5t-81 -40t-38 -14.5zM342 446q-25 0 -50 -19t-45.5 -49t-33 -67.5t-12.5 -75.5q0 -18 5 -40t21 -41.5t45.5 -32.5t79.5 -13h102h58q-2 28 -6.5 64.5t-13 74t-21 73.5t-30.5 64t-42.5 45t-56.5 17z" />
    <glyph glyph-name="u0649" unicode="&#x649;" horiz-adv-x="1177" arabic-form="isolated" 
d="M504 -421q-265 0 -371 159q-77 114 -65 295t112 430l100 -40q-56 -138 -79.5 -241t-25.5 -178t12 -125t35 -81q76 -112 282 -112q112 0 202.5 25t153.5 61t97.5 76.5t34.5 71.5q0 14 -5 24t-20 17.5t-41 13.5t-67 12q-38 6 -82.5 15.5t-83.5 31t-67 59t-33 98.5
q-4 46 11.5 93.5t43 92.5t64.5 84t76 67q50 36 96.5 53.5t88 23.5t76 2.5t60 -10t40.5 -13.5t17 -8l-52 -94l26 47l-26 -48q-2 1 -23.5 9.5t-57 10t-82.5 -10t-100 -50.5q-33 -24 -61.5 -54.5t-49 -63.5t-31.5 -65t-9 -58q2 -27 13.5 -44t32.5 -28.5t53.5 -18.5t76.5 -14
q36 -6 75.5 -14.5t73 -27t55 -50.5t20.5 -84q-1 -60 -47 -120.5t-126 -109t-188.5 -79t-234.5 -30.5z" />
    <glyph glyph-name="u064A" unicode="&#x64a;" horiz-adv-x="1186" arabic-form="isolated" 
d="M504 -429q-265 0 -371 159q-77 114 -65 295t112 430l100 -40q-56 -138 -79.5 -241t-25.5 -178t12 -125t35 -81q76 -112 282 -112q112 0 202.5 25t153.5 61t97.5 76.5t34.5 71.5q0 14 -5 24t-20 17.5t-41 13.5t-67 12q-38 6 -82.5 15.5t-83.5 31t-67 59t-33 98.5
q-4 46 11.5 93.5t43 92.5t64.5 84t76 67q50 36 96.5 53.5t88 23.5t76 2.5t60 -10t40.5 -13.5t17 -8l-52 -94l26 47l-26 -48q-2 1 -23.5 9.5t-57 10t-82.5 -10t-100 -50.5q-33 -24 -61.5 -54.5t-49 -63.5t-31.5 -65t-9 -58q2 -27 13.5 -44t32.5 -28.5t53.5 -18.5t76.5 -14
q36 -6 75.5 -14.5t73 -27t55 -50.5t20.5 -84q-1 -60 -47 -120.5t-126 -109t-188.5 -79t-234.5 -30.5z" />
    <glyph glyph-name="u067E" unicode="&#x67e;" horiz-adv-x="1396" arabic-form="isolated" 
d="M1254 574q6 -12 19 -39t27 -63t27 -77.5t18.5 -84t1.5 -82t-24 -70.5q-23 -36 -71 -62.5t-110 -46t-132 -32.5t-136.5 -20.5t-123.5 -10.5t-93 -3q-28 0 -69 1t-89 5.5t-100 15.5t-100.5 30.5t-91 49.5t-71.5 74q-51 75 -49 177.5t56 231.5l99 -41q-85 -206 -16 -309
q21 -32 55 -53.5t74 -35.5t83.5 -22t84 -11.5t76 -4t58.5 -0.5q94 0 190 10.5t176.5 28t137 40t71.5 46.5q12 19 9 56.5t-15 82t-30.5 89.5t-36.5 80zM612 -154l98 -97l-97 -96l-97 97zM745 -250l96 96l98 -97l-97 -96zM631 -451l97 96l97 -97l-96 -96z" />
    <glyph glyph-name="u0686" unicode="&#x686;" horiz-adv-x="1190" arabic-form="isolated" 
d="M1032 -331l47 -97q-99 -48 -202 -71.5t-203 -23.5q-93 0 -176 20.5t-149 62.5q-94 59 -142 150t-48 209q0 81 26.5 146t72 117t105.5 91t127 68t137.5 48.5t135.5 32.5q-56 21 -99.5 42t-79.5 40q-45 23 -79 38t-65 15q-29 0 -62 -12t-56 -32q-23 -19 -40.5 -41t-30 -41
t-19 -32l-6.5 -13l-98 46q1 1 9.5 17.5t24 40.5t38.5 52t53 53q38 32 88.5 51t98.5 19q51 0 95.5 -19t97.5 -46q34 -18 75 -38t93 -39.5t117 -37t146 -30.5l-7 -107q-2 0 -36.5 -1.5t-90.5 -8t-127 -18.5t-144.5 -33.5t-144 -52.5t-126 -75.5t-89 -104t-33.5 -135.5
q0 -181 140 -268q57 -36 131 -52.5t156.5 -14.5t169 23.5t169.5 61.5zM465 -10l101 102l102 -103l-101 -101zM896 -11l-102 -101l-102 102l101 102zM783 -212l-101 -101l-103 102l102 102z" />
    <glyph glyph-name="u0698" unicode="&#x698;" horiz-adv-x="647" arabic-form="isolated" 
d="M290 390l95 50q3 -6 14 -27.5t25 -53t30 -70t29 -79.5t21.5 -80.5t8.5 -73.5q0 -81 -30 -150.5t-75 -126.5t-98 -101.5t-99.5 -75.5t-79 -48t-36.5 -19l-45 98q1 0 27.5 14t66 39.5t85.5 62.5t85 84t65 103t26 120q0 34 -13.5 82t-32 96t-38 90.5t-31.5 65.5zM461 992
l-97 -97l-97 98l97 95zM479 700l-98 98l97 95l97 -96zM354 797l-97 -97l-97 98l96 95z" />
    <glyph glyph-name="u06AF" unicode="&#x6af;" horiz-adv-x="1541" arabic-form="isolated" 
d="M1034 734q23 -20 54 -49t64 -64.5t64.5 -76t56.5 -85t40.5 -90.5t15.5 -92q0 -64 -26.5 -110t-74 -78.5t-112.5 -52.5t-142.5 -31t-164.5 -15t-178 -4q-98 0 -175 8t-136 25t-101.5 43.5t-71.5 62.5q-53 67 -61.5 170t26.5 257l104 -23q-29 -127 -25 -209t40 -127
q21 -26 54.5 -44.5t82.5 -30.5t114.5 -18t148.5 -6q130 0 224.5 7t160 20t105.5 30.5t62.5 37.5t30 42.5t7.5 45.5q0 37 -16 77t-42.5 80.5t-59 78.5t-65.5 71t-63 59t-50 42l-30 23l29 95l607 267l44 -99zM1494 1152l-534 -232l-25 56l534 233z" />
    <glyph glyph-name="uFB57" unicode="&#x67e;" horiz-adv-x="1511" arabic-form="final" 
d="M659 -156l97 -97l-96 -96l-98 97zM791 -252l97 96l97 -97l-96 -96zM678 -454l96 97l98 -98l-97 -95zM1371 162q10 -15 27.5 -25.5t38 -17t41 -9.5t35.5 -3v-107q-6 0 -34 2t-64 12t-73 31.5t-61 59.5q-15 22 -21 47q-42 -31 -96.5 -58.5t-125 -48.5t-158.5 -33t-195 -12
q-368 0 -482 179q-34 54 -41.5 112t-1 111t22.5 96.5t28 69.5l97 -46q-8 -15 -20 -47.5t-18.5 -72.5t-3 -83.5t27.5 -81.5q41 -64 140 -97t251 -33q145 0 249.5 23t176 57.5t114.5 75.5t66.5 77t31 61t8.5 29l106 -18q-1 -5 -11.5 -42t-44.5 -90q-35 -77 -10 -118z" />
    <glyph glyph-name="uFB58" unicode="&#x67e;" horiz-adv-x="428" arabic-form="initial" 
d="M-54 53q0 23 16 38.5t38 15.5h4h47q54 0 91.5 1.5t62.5 8t39.5 20t21.5 36.5q6 22 0.5 65t-17.5 95t-29 106t-33 98l100 38q5 -13 15.5 -42.5t22.5 -68t23.5 -83t18.5 -88.5t8.5 -83.5t-7.5 -68.5q-15 -49 -43 -77t-65 -42.5t-80.5 -18.5t-88.5 -4h-21t-20 1h-46h-4
q-22 0 -38 15t-16 38zM98 -156l98 -97l-97 -96l-98 97zM327 -156l97 -97l-96 -96l-98 97zM117 -454l96 97l98 -98l-97 -95z" />
    <glyph glyph-name="uFB59" unicode="&#x67e;" horiz-adv-x="550" arabic-form="medial" 
d="M-54 53q0 23 16 38.5t38 15.5h51q142 0 189 71q22 32 25 72.5t-2.5 76.5t-13.5 61t-8 26l99 40q1 -2 7.5 -20.5t13.5 -48t11 -66.5t0 -77q-2 -57 29 -88q15 -16 35.5 -25t41 -14t39 -6.5t30.5 -1.5h4v-107h-4q-21 0 -49 3t-58.5 11t-60.5 23.5t-55 41.5q-6 5 -13 15
q-83 -94 -260 -94h-47h-4q-22 0 -38 15t-16 38zM165 -464l96 96l98 -97l-97 -96zM278 -263l97 97l97 -98l-96 -95zM146 -166l97 -98l-96 -95l-98 96z" />
    <glyph glyph-name="uFB7B" unicode="&#x686;" horiz-adv-x="1194" arabic-form="final" 
d="M1006 163q25 -24 57.5 -36t61.5 -16t49 -3.5l20 0.5v-107q-1 0 -6 -0.5t-18 -0.5q-20 0 -48.5 2.5t-61 11.5t-66.5 26t-63 46q-84 79 -87 221q-58 -10 -121 -26t-124 -39t-116 -54.5t-96.5 -73t-66 -93.5t-24.5 -117q0 -181 140 -268q57 -36 131 -52.5t156.5 -14.5
t169 23.5t169.5 61.5l47 -97q-99 -48 -202.5 -71.5t-202.5 -23.5q-93 0 -176 20.5t-149 62.5q-94 59 -142.5 150t-48.5 209q0 81 26.5 146t72 116.5t105.5 91t127.5 68.5t138 48.5t135.5 32.5q-56 21 -99.5 42t-79.5 40q-45 23 -79 38t-66 15q-29 0 -61.5 -12.5t-55.5 -32.5
q-23 -19 -40.5 -41t-30 -40.5t-19.5 -31.5l-7 -13l-97 46q1 1 9.5 17.5t24 40.5t38.5 52t53 53q38 32 88 50.5t98 18.5q51 0 96 -18.5t98 -45.5q34 -18 75 -38t93 -39.5t117 -37t146 -30.5l-7 -107q-2 0 -39 -1.5t-97 -9.5q0 -107 55 -159zM383 -44l102 101l102 -102
l-101 -101zM817 -47l-102 -101l-102 102l101 102zM703 -245l-102 -102l-102 103l101 101z" />
    <glyph glyph-name="uFB7C" unicode="&#x686;" horiz-adv-x="1066" arabic-form="initial" 
d="M-54 53q0 23 16 38.5t38 15.5q87 0 176 17t174.5 43t164 58.5t143.5 64.5q22 10 47.5 22t51.5 25q-111 25 -188 55t-134 55q-47 20 -82 33.5t-67 13.5q-27 0 -49.5 -13.5t-42 -35.5t-35.5 -50t-31 -56l-96 49q13 26 34.5 62.5t52.5 70.5t72 57.5t95 23.5q49 0 94 -16.5
t98 -39.5q36 -16 79.5 -34t98.5 -35.5t123.5 -34t155.5 -28.5l16 -102q-45 -22 -89 -43q-38 -18 -80.5 -38.5t-76.5 -37.5q-69 -33 -152.5 -67.5t-175 -62t-187.5 -45.5t-190 -18q-22 0 -38 15t-16 38zM353 -462l102 102l102 -103l-101 -101zM341 -161l102 -102l-101 -102
l-103 103zM467 -262l101 101l102 -102l-101 -102z" />
    <glyph glyph-name="uFB7D" unicode="&#x686;" horiz-adv-x="1061" arabic-form="medial" 
d="M-54 53q0 23 16 38.5t38 15.5q101 0 189.5 16.5t165 42t141.5 56t120 57.5l48 23l99 48q-111 25 -188 55t-134 55q-47 20 -82 33.5t-67 13.5q-27 0 -49.5 -13.5t-41.5 -35.5t-35.5 -50t-31.5 -56l-95 49q13 26 34.5 62.5t52 70.5t71.5 57.5t95 23.5q49 0 94 -16.5
t99 -39.5q36 -16 79 -34t98 -35.5t123.5 -34t155.5 -28.5l16 -102q-20 -10 -43 -21q-20 -10 -45.5 -22t-52.5 -25q1 -47 20.5 -76t53 -45t80.5 -22t104 -6l1 -54l-1 -54q-21 0 -53 1t-69 6.5t-75.5 18t-72 35.5t-58 58.5t-33.5 87.5l-2 -2q-11 -5 -23 -10.5t-25 -12.5
q-58 -29 -127 -61t-151 -58.5t-177 -44.5t-204 -18h-4q-22 0 -38 15t-16 38zM426 -462l101 102l103 -103l-102 -101zM540 -263l101 101l103 -102l-102 -102zM412 -160l102 -103l-101 -101l-103 103z" />
    <glyph glyph-name="uFB8B" unicode="&#x698;" horiz-adv-x="770" arabic-form="final" 
d="M548 248q20 -43 51 -70.5t63.5 -43t61.5 -21t46 -5.5v-108q-34 0 -85.5 12.5t-104.5 44.5q-2 -56 -22.5 -121.5t-70.5 -133.5t-136.5 -136.5t-220.5 -131.5l-46 98q389 181 389 444q0 34 -9 72t-21 72.5t-24.5 62.5t-20.5 42l94 52q2 -3 19.5 -39t36.5 -90zM550 885
l-97 -96l-97 97l96 96zM567 593l-97 98l96 96l98 -97zM442 690l-96 -97l-98 98l97 96z" />
    <glyph glyph-name="uFEDA" unicode="&#x6a9;" horiz-adv-x="1644" arabic-form="final" 
d="M1368 369q15 -52 49.5 -99.5t76 -83.5t82.5 -57t70 -21v-108q-33 0 -72.5 13.5t-79 38t-78 58.5t-69.5 75q-5 -8 -10.5 -16.5t-12.5 -16.5q-32 -38 -85 -66.5t-129.5 -48t-178 -31t-231.5 -15.5q-12 -1 -23.5 -1h-22.5q-371 0 -493 186q-28 42 -39.5 87t-13 88t4.5 81
t14.5 67.5t16 48t8.5 20.5l97 -46q0 -1 -5.5 -14t-12 -35t-11.5 -51t-4.5 -61t8 -64.5t27.5 -62.5q48 -72 161 -106.5t284 -29.5q452 14 546 124q18 21 24 47.5t1 63.5l-2 6v1q-8 30 -40 78.5t-77 103t-95.5 109.5t-95.5 99l-20 21l21 109l588 258l43 -98l-534 -235
q19 -20 47.5 -49.5t60 -65t64.5 -75t61 -79.5t49.5 -77.5t30.5 -69.5z" />
    <glyph glyph-name="uFEDB" unicode="&#x6a9;" horiz-adv-x="718" arabic-form="initial" 
d="M-54 53q0 23 16 38.5t38 15.5h68q84 -1 147 2t101 23q25 13 39.5 35.5t22.5 48t10.5 50.5t2.5 45q0 37 -16.5 78t-42.5 82t-59 79.5t-66 72t-63 60.5t-51 43l-27 21l26 107l603 261l43 -99l-543 -235q22 -19 53.5 -48t65.5 -65t67 -78.5t59 -88.5t42.5 -94t16.5 -96
q0 -100 -34 -170t-99 -104q-48 -25 -109.5 -31t-139.5 -6h-113h-4q-22 0 -38 15t-16 38z" />
    <glyph glyph-name="uFEDC" unicode="&#x6a9;" horiz-adv-x="829" arabic-form="medial" 
d="M-54 53q0 23 16 38.5t38 15.5q57 0 111 1.5t98 4.5t74 7t40 8q92 41 92 149q0 11 -1 27.5t-7 40.5v1q-7 28 -24 65.5t-49.5 85.5t-84 106.5t-127.5 128.5l-22 21l20 98l609 270l43 -98l-545 -242q70 -66 119 -124t82 -107.5t52 -91.5t29 -78q24 -69 62 -120t79.5 -85
t82 -50.5t71.5 -17.5h57v-107h-58q-35 0 -73.5 11.5t-77.5 33t-77 53t-72 73.5q-18 -48 -52.5 -84t-84.5 -57q-15 -7 -41.5 -11.5t-59 -8t-68.5 -5.5t-71.5 -3t-67 -1.5t-54.5 -0.5h-4q-22 0 -38 15t-16 38z" />
    <glyph glyph-name="uFB93" unicode="&#x6af;" horiz-adv-x="1667" arabic-form="final" 
d="M1540 1204l-534 -233l-24 57l534 233zM1390 369q15 -52 49.5 -99.5t76 -83.5t82.5 -57t70 -21v-108q-33 0 -72.5 13.5t-79 38t-78 58.5t-69.5 75q-5 -8 -10.5 -16.5t-12.5 -16.5q-32 -38 -85 -66.5t-129.5 -48t-178 -31t-231.5 -15.5q-12 -1 -23.5 -1h-22.5
q-371 0 -493 186q-28 42 -39.5 87t-13 88t4.5 81t14.5 67.5t16 48t8.5 20.5l97 -46q0 -1 -5.5 -14t-12 -35t-11.5 -51t-4.5 -61t8 -64.5t27.5 -62.5q48 -72 161 -106.5t284 -29.5q452 14 546 124q18 21 24 47.5t1 63.5l-2 6v1q-8 30 -40 78.5t-77 103t-95.5 109.5t-95.5 99
l-20 21l21 109l588 258l43 -98l-534 -235q19 -20 47.5 -49.5t60 -65t64.5 -75t61 -79.5t49.5 -77.5t30.5 -69.5z" />
    <glyph glyph-name="uFB94" unicode="&#x6af;" horiz-adv-x="715" arabic-form="initial" 
d="M-54 53q0 23 16 38.5t38 15.5v1h68q84 -1 147 1.5t101 22.5q25 13 39.5 35.5t22.5 48t10.5 50.5t2.5 45q0 37 -16.5 78t-42.5 82t-59 79.5t-66 72t-63 60.5t-51 43l-27 21l26 107l603 261l43 -99l-543 -235q22 -19 53.5 -48t65.5 -65t67 -78.5t59 -88.5t42.5 -94
t16.5 -96q0 -100 -34 -170t-99 -104q-48 -25 -109.5 -31t-139.5 -6h-117q-22 0 -38 15t-16 38zM666 1197l-534 -233l-25 56l534 233z" />
    <glyph glyph-name="uFB95" unicode="&#x6af;" horiz-adv-x="845" arabic-form="medial" 
d="M-54 53q0 23 16 38.5t38 15.5q57 0 111 1.5t98 4.5t74 7t40 8q92 41 92 149q0 11 -1 27.5t-7 40.5v1q-7 28 -24 65.5t-49.5 85.5t-84 106.5t-127.5 128.5l-22 21l20 98l609 270l43 -98l-545 -242q70 -66 119 -124t82 -107.5t52 -91.5t29 -78q24 -69 62 -120t79.5 -85
t82 -50.5t71.5 -17.5h57v-107h-58q-35 0 -73.5 11.5t-77.5 33t-77 53t-72 73.5q-18 -48 -52.5 -84t-84.5 -57q-15 -7 -41.5 -11.5t-59 -8t-68.5 -5.5t-71.5 -3t-67 -1.5t-54.5 -0.5h-4q-22 0 -38 15t-16 38zM689 1199l-534 -234l-24 57l534 233z" />
    <glyph glyph-name="uFE94" unicode="&#x6c0;" horiz-adv-x="763" arabic-form="final" 
d="M270 877q11 5 37.5 18t60.5 28q-15 10 -21 16q-27 26 -38 59t-2 64q35 110 146 110q25 0 47.5 -7.5t39.5 -16.5t28 -17.5t13 -10.5l-47 -54q-8 8 -31.5 21t-49.5 13t-46 -11t-31 -49q-3 -8 1.5 -22t18.5 -26q9 -9 32.5 -20t64.5 -7q4 1 7.5 1h6.5q15 2 32 6.5t36 12.5
l27 -66q-56 -22 -100 -25q-17 -3 -42.5 -12.5t-53.5 -21t-55 -24.5t-48 -23zM797 107v-107h-35q-97 0 -159 40t-87 116q-40 -23 -90 -37.5t-104 -14.5q-13 0 -26 1t-26 3q-43 7 -78 30.5t-57 61.5q-21 36 -25 78t11 81q11 30 35.5 59.5t56.5 57t68 52t69.5 44.5t61.5 35
t44 23l-11 91l107 13l56 -471q0 -84 36 -119.5t120 -36.5h33zM286 214q35 -5 68 -0.5t61.5 14.5t50 22.5t33.5 23.5l-29 242q-39 -21 -79.5 -46t-75.5 -51t-60.5 -51t-32.5 -46q-7 -17 -5 -34.5t11 -33.5q20 -34 58 -40z" />
    <glyph glyph-name="uFEF2" unicode="&#x6cc;" horiz-adv-x="1137" arabic-form="final" 
d="M1149 108v-108q-33 0 -73 2t-74 6q38 -34 61.5 -73t23.5 -84q0 -65 -40.5 -118.5t-113 -92t-173 -60t-221.5 -21.5q-224 0 -344 132q-43 47 -65.5 99.5t-32.5 102t-10 91t2 66.5q7 79 25 150t37.5 124.5t34.5 86t17 35.5l95 -49q0 -1 -13.5 -30t-31 -78t-34 -113.5
t-23.5 -135.5q-2 -20 -2 -52.5t7 -70.5t24 -78.5t49 -75.5q88 -96 265 -96q102 0 183.5 16t138.5 42.5t87.5 59.5t30.5 66q0 28 -30 59.5t-78.5 62t-109.5 57t-122 45.5l15 51l14 52q1 0 22.5 -5t58 -13t84.5 -17t101 -17t108.5 -13t106.5 -5z" />
    <glyph glyph-name="uFEF3" unicode="&#x6cc;" horiz-adv-x="407" arabic-form="initial" 
d="M-54 53q0 23 16 38.5t38 15.5h48q51 0 82.5 1.5t50 8t28 20t16.5 37.5q7 22 1.5 65t-18 95t-29.5 106t-33 98l101 38q5 -13 15 -42.5t22 -68t23.5 -83t19 -88.5t9 -84t-7.5 -68q-15 -49 -39.5 -77.5t-56.5 -42.5t-70 -18t-80 -4h-82q-22 0 -38 15t-16 38zM298 -199
l97 -98l-97 -96l-96 97zM-12 -296l96 97l97 -98l-96 -96z" />
    <glyph glyph-name="uFEF4" unicode="&#x6cc;" horiz-adv-x="550" arabic-form="medial" 
d="M52 -298l96 97l97 -98l-96 -96zM259 -299l97 97l97 -98l-96 -96zM-54 53q0 23 16 38.5t38 15.5h51q142 0 190 71q22 32 24.5 72.5t-3 76.5t-13.5 61l-8 25l99 41q1 -2 7.5 -20.5t13.5 -48t11 -66.5t0 -77q-1 -57 29 -89q15 -15 35.5 -24t41 -13.5t39 -6t30.5 -1.5h29
v-108h-29q-21 0 -49 2.5t-58.5 11t-60.5 23.5t-55 41q-4 4 -7 7.5t-6 7.5q-83 -93 -260 -93h-47h-4q-22 0 -38 15t-16 38z" />
    <glyph glyph-name="Hcircumflex" unicode="&#x622;" horiz-adv-x="477" arabic-form="final" 
d="M469 108h9v-108h-9h-15q-14 0 -34.5 2t-44 8.5t-49 18.5t-48.5 33q-85 76 -85 225q0 63 -2 140.5t-5 156.5t-6 153.5t-6 132.5t-5 93.5t-2 36.5l107 6q0 -1 2 -37t5 -94.5t6 -133.5t6 -154.5t5 -157.5t2 -142q0 -101 49 -144q17 -16 38 -23.5t39 -10t30.5 -2zM266 1128
q-23 0 -43.5 3t-40.5 7q-27 6 -47 8.5t-36 -2.5t-29.5 -20.5t-27.5 -46.5l-97 44q27 60 60.5 89t68 38.5t68 5.5t61.5 -10q17 -4 33 -6.5t30 -2.5q27 0 51.5 10t43 22.5t30 23l11.5 10.5l78 -74q-2 -2 -18.5 -17.5t-45 -33.5t-67 -33t-83.5 -15z" />
    <glyph glyph-name="uFE84" unicode="&#x623;" horiz-adv-x="477" arabic-form="final" 
d="M468 108h9v-108h-9h-15q-14 0 -34.5 2t-44 8.5t-49 18.5t-48.5 33q-85 76 -85 225q0 63 -2 140.5t-5 156.5t-6 153.5t-6 132.5t-5 93.5t-2 36.5l107 12q0 -1 2 -37t5 -95.5t6 -135t6 -156t5 -159t2 -142.5q0 -101 49 -144q17 -16 38 -23.5t39 -10t30.5 -2zM436 1315
q-55 -22 -101 -25q-17 -3 -42.5 -12.5t-53 -21t-54.5 -24.5t-48 -23l-33 64q10 5 37 18t61 28q-15 10 -21 16q-28 26 -38.5 59t-1.5 64q35 110 146 110q25 0 47 -7.5t39 -16.5t28 -17.5t14 -10.5l-47 -54q-5 4 -13.5 9.5t-19.5 11t-23.5 9.5t-24.5 4q-26 0 -46 -11t-31 -49
q-3 -8 1.5 -22t18.5 -26q9 -9 32.5 -20t64.5 -7q4 1 7.5 1h6.5q30 5 68 19z" />
    <glyph glyph-name="uFE86" unicode="&#x624;" horiz-adv-x="622" arabic-form="final" 
d="M162 593l-33 64l37 18.5t61 27.5q-15 10 -21 16q-28 26 -38.5 59t-1.5 64q35 110 146 110q25 0 47 -7.5t39 -16.5t28 -17.5t14 -10.5l-47 -54q-4 4 -12.5 9.5t-19.5 11t-24 9.5t-25 4q-26 0 -46 -11t-31 -48q-3 -9 1.5 -23t18.5 -26q9 -9 32.5 -20t64.5 -7q4 1 7.5 1h6.5
q30 5 68 19l27 -66q-55 -22 -101 -25q-17 -3 -42.5 -12.5t-53 -21t-54.5 -24.5t-48 -23zM583 107h43v-107h-42q-7 -85 -39 -152t-77 -119t-96 -88.5t-95 -60.5t-75 -35.5t-35 -13.5l-33 102q3 1 28 10.5t60.5 28.5t77 48.5t78.5 69.5t64 92.5t34 117.5h-59h-103
q-72 0 -121 21.5t-79.5 55t-44 75.5t-13.5 83q0 55 19 112t52.5 103t78.5 75t98 29q54 0 95 -21.5t71 -57.5t50.5 -82.5t33.5 -96t19.5 -99t9.5 -90.5zM416 108h59q-2 28 -7 64.5t-13 74t-21 73.5t-31 64t-42.5 45t-56.5 17q-25 0 -50 -19t-45.5 -49t-33 -67.5t-12.5 -75.5
q0 -18 5 -40t21 -41.5t46 -32.5t79 -13h102z" />
    <glyph glyph-name="uFE88" unicode="&#x625;" horiz-adv-x="481" arabic-form="final" 
d="M472 107h9v-107h-9h-16q-14 0 -34.5 2t-44 8.5t-48.5 18.5t-48 33q-86 77 -86 225q0 63 -2 140.5t-4.5 156t-6 153t-6.5 132.5t-5 94t-2 37l108 6q0 -1 2 -37t5 -94.5t6 -133.5t6 -154.5t5 -157.5t2 -142q0 -101 49 -144q17 -16 38 -23.5t39 -10.5t30.5 -2.5zM339 -302
q14 2 31 6.5t37 12.5l26 -67q-29 -11 -53.5 -17t-46.5 -8q-17 -3 -42.5 -12t-53.5 -20.5t-55 -24.5t-48 -24l-32 64l37 18.5t60 27.5q-6 5 -11 9t-9 7q-28 26 -39 59.5t-1 64.5q35 110 145 110q25 0 47.5 -7.5t39.5 -16.5t28 -17.5t13 -10.5l-47 -54q-4 3 -12.5 9
t-19.5 11.5t-23.5 9.5t-25.5 4q-26 0 -45.5 -11t-31.5 -49q-2 -9 2 -22.5t18 -26.5q10 -8 33 -19t65 -8q4 1 7 1.5t7 0.5z" />
    <glyph glyph-name="uFE8A" unicode="&#x626;" horiz-adv-x="1137" arabic-form="final" 
d="M1141 108v-108q-33 0 -69 2t-70 6q37 -34 60.5 -73t23.5 -84q0 -65 -40 -118.5t-112.5 -92t-173.5 -60t-222 -21.5q-223 0 -343 132q-43 47 -65.5 99.5t-32.5 102t-10 91t2 66.5q7 79 25 150t37.5 124.5t34.5 86t16 35.5l96 -49q0 -1 -14 -30t-31 -78t-34 -113.5
t-23 -135.5q-2 -20 -2 -52.5t7 -70.5t24 -78.5t49 -75.5q44 -48 110 -72t154 -24q102 0 183.5 16.5t139 42.5t88 59t30.5 66q0 28 -30 59.5t-79 62t-110 57.5t-122 45l16 52l14 52q1 0 22 -5.5t56.5 -13.5t82.5 -17t99 -17t107 -13t106 -5zM393 338l-33 64q11 5 37.5 18.5
t60.5 27.5q-7 5 -12 9t-9 7q-28 26 -38.5 59.5t-1.5 63.5q35 110 146 110q25 0 47.5 -7.5t39.5 -16.5t28 -17t13 -10l-47 -55q-4 4 -12.5 10t-19.5 11.5t-23.5 9.5t-25.5 4q-26 0 -46 -11.5t-31 -48.5q-3 -9 1.5 -22.5t18.5 -26.5q9 -9 32 -19.5t65 -7.5q4 1 7.5 1t6.5 1
q15 2 31.5 6.5t36.5 12.5l27 -67q-29 -11 -53.5 -17t-46.5 -8q-17 -3 -42.5 -12t-53.5 -20.5t-55 -24.5t-48 -24z" />
    <glyph glyph-name="uFE8B" unicode="&#x626;" horiz-adv-x="413" arabic-form="initial" 
d="M-54 53q0 23 16 38.5t38 15.5h4h21q39 -1 77.5 1t71.5 10.5t57 26t33 47.5q4 15 -2 53t-19.5 87.5t-32 105.5t-38.5 108l100 39q7 -19 19 -51t25 -71t25 -82t20 -83.5t10.5 -76.5t-4.5 -60q-16 -55 -51.5 -87t-79.5 -48.5t-90.5 -21t-85.5 -4.5h-56h-4q-22 0 -38 15
t-16 38zM90 705l-32 63l37 18.5t61 28.5q-7 4 -12 8t-9 8q-28 26 -39 59t-1 64q35 110 146 110q25 0 47 -7.5t39 -16.5t28 -17.5t13 -10.5l-47 -54q-4 3 -12.5 9t-19.5 11.5t-23.5 9.5t-24.5 4q-26 0 -46 -11t-32 -49q-2 -8 2 -22t18 -27q10 -8 33 -19t65 -7q4 0 7.5 0.5
t6.5 0.5q30 5 68 19l26 -67q-28 -11 -53 -17t-47 -8q-17 -3 -42.5 -12t-53.5 -20.5t-55 -24.5t-48 -23z" />
    <glyph glyph-name="uFE8C" unicode="&#x626;" horiz-adv-x="553" arabic-form="medial" 
d="M-54 53q0 23 16 38.5t38 15.5h51q71 2 118.5 19t71.5 52q22 33 24.5 73.5t-2.5 76.5t-13.5 60.5t-8.5 25.5l99 40q1 -2 7.5 -20.5t13.5 -48t11 -66.5t0 -77q-1 -56 29 -88q15 -15 35.5 -24.5t41 -14t39 -6t30.5 -1.5h29v-108h-29v1q-21 0 -49 2.5t-58.5 11t-60.5 23.5
t-55 41q-4 3 -7 7l-6 8q-83 -94 -260 -94h-51q-22 0 -38 15t-16 38zM162 616l-33 63q11 5 38 18.5t60 28.5q-6 4 -11 8l-10 8q-27 26 -38 59t-1 64q35 110 146 110q25 0 47 -7.5t39 -16.5t28 -17.5t13 -10.5l-47 -54q-4 3 -12.5 9t-19.5 11.5t-23.5 9.5t-24.5 4
q-27 0 -46.5 -11t-31.5 -49q-3 -9 1.5 -22.5t18.5 -26.5q10 -8 33 -19t65 -7q4 0 7 0.5t7 0.5q30 5 68 19l26 -67q-29 -11 -53.5 -17t-46.5 -8q-17 -3 -42.5 -12t-53.5 -20.5t-55 -24.5t-48 -23z" />
    <glyph glyph-name="uFE8E" unicode="&#x627;" horiz-adv-x="480" arabic-form="final" 
d="M478 108h9v-108h-9h-15q-14 0 -34.5 2t-44 8.5t-49 18.5t-48.5 33q-85 77 -85 225q0 63 -2 140.5t-5 156.5t-6 153.5t-6 132.5t-5 93.5t-2 36.5l107 12q0 -1 2 -37t5 -95.5t6.5 -135t6.5 -156t5 -159t2 -142.5q0 -101 48 -144q17 -16 38 -23.5t39 -9.5q21 -4 43 -2z" />
    <glyph glyph-name="uFE90" unicode="&#x628;" horiz-adv-x="1511" arabic-form="final" 
d="M1372 162q9 -15 26.5 -25.5t37.5 -17t40 -9.5t35 -3v-107q-6 0 -33.5 2t-63 12t-72.5 31t-61 59q-15 24 -21 48q-42 -31 -96.5 -58.5t-125 -48.5t-158.5 -33t-195 -12q-368 0 -482 179q-34 54 -41.5 112t-1 111t22.5 96.5t28 69.5l97 -46q-7 -15 -19 -47.5t-19 -72.5
t-3.5 -83.5t27.5 -81.5q41 -64 140 -97t251 -33q145 0 249.5 23t176 57.5t114.5 75.5t66.5 77t31 61t8.5 29l106 -18q-1 -5 -11.5 -42t-44.5 -90q-35 -77 -9 -118zM698 -306l102 101l101 -102l-101 -102z" />
    <glyph glyph-name="uFE91" unicode="&#x628;" horiz-adv-x="395" arabic-form="initial" 
d="M-54 53q0 23 16 38.5t38 15.5h49q50 0 81.5 1t50 8t28.5 20t17 37q7 22 1.5 65.5t-18 95.5t-29.5 106t-33 98l101 38q5 -13 15 -42.5t22 -68.5t23.5 -83.5t19 -88.5t9 -83.5t-7.5 -67.5q-15 -49 -39.5 -77.5t-56.5 -42.5t-70 -18t-80 -4h-79h-4q-22 0 -38 15t-16 38z
M81 -300l102 102l102 -102l-101 -102z" />
    <glyph glyph-name="uFE92" unicode="&#x628;" horiz-adv-x="497" arabic-form="medial" 
d="M-54 53q0 23 16 38.5t38 15.5q142 0 190 71q18 27 23 61.5t2 68t-10.5 62.5t-13.5 44l100 39q1 -2 7.5 -19.5t12.5 -46t10 -64.5t1 -75h1q-2 -46 29 -77q17 -18 39.5 -30.5t45.5 -20t43.5 -10.5t32.5 -3v-107q-22 0 -52.5 5t-63.5 16.5t-65.5 29.5t-57.5 45l-6 7
q-81 -101 -264 -103h-4q-22 0 -38 15t-16 38zM136 -289l102 103l101 -104l-101 -100z" />
    <glyph glyph-name="uFE96" unicode="&#x62a;" horiz-adv-x="1511" arabic-form="final" 
d="M1371 162q10 -15 27.5 -25.5t37.5 -17t40 -9.5t35 -3v-107q-6 0 -33.5 2t-63 12t-72.5 31.5t-61 59.5q-15 22 -21 47q-42 -31 -96.5 -58.5t-125 -48.5t-158.5 -33t-195 -12q-368 0 -482 179q-34 54 -41.5 112t-1 111t22.5 96.5t28 69.5l97 -46q-8 -15 -20 -47.5
t-18.5 -72.5t-3 -83.5t27.5 -81.5q41 -64 140 -97t251 -33q145 0 249.5 23t176 57.5t114.5 75.5t66.5 77t31 61t8.5 29l106 -18q-1 -5 -11.5 -42t-44.5 -90q-35 -77 -10 -118zM799 728l-96 -95l-98 96l97 97zM1022 728l-97 -95l-97 96l97 97z" />
    <glyph glyph-name="uFE97" unicode="&#x62a;" horiz-adv-x="448" arabic-form="initial" 
d="M-54 53q0 23 16 38.5t38 15.5h4h46q54 -1 91.5 0.5t62.5 8.5t39.5 20.5t21.5 36.5q7 22 1.5 65t-18 95t-29.5 106.5t-33 98.5l101 37q5 -13 15.5 -42.5t22.5 -68t23.5 -83t18.5 -88.5t8.5 -83.5t-7.5 -67.5q-15 -49 -43 -77t-65 -42.5t-80.5 -18.5t-89.5 -4h-90
q-22 0 -38 15t-16 38zM441 794l-97 -96l-97 97l96 96zM226 794l-95 -96l-97 97l96 96z" />
    <glyph glyph-name="uFE98" unicode="&#x62a;" horiz-adv-x="545" arabic-form="medial" 
d="M-54 53q0 23 16 38.5t38 15.5h51q142 0 189 71q22 32 25 72.5t-2.5 76.5t-13.5 61t-8 26l99 40q1 -2 7.5 -20.5t13.5 -48t11 -66.5t0 -77q-2 -57 29 -88q15 -16 35.5 -25t41 -13.5t39 -6t30.5 -1.5h29v-108h-29q-21 0 -49 3t-58.5 11t-60.5 23.5t-55 41.5q-6 5 -13 15
q-83 -94 -260 -94h-47h-4q-22 0 -38 15t-16 38zM506 729l-96 -96l-98 97l97 96zM278 729l-97 -96l-97 97l96 96z" />
    <glyph glyph-name="uFE9A" unicode="&#x62b;" horiz-adv-x="1511" arabic-form="final" 
d="M1371 162q10 -15 27.5 -25.5t38 -17t41 -9.5t35.5 -3v-107q-6 0 -34 2t-64 12t-73 31.5t-61 59.5q-15 22 -21 47q-42 -31 -96.5 -58.5t-125 -48.5t-158.5 -33t-195 -12q-368 0 -482 179q-34 54 -41.5 112t-1 111t22.5 96.5t28 69.5l97 -46q-8 -15 -20 -47.5t-18.5 -72.5
t-3 -83.5t27.5 -81.5q41 -64 140 -97t251 -33q145 0 249 22.5t175 56t113.5 74t65 76t30.5 62t9 32.5l106 -18q-1 -5 -13.5 -38.5t-38.5 -93.5q-35 -77 -10 -118zM871 532l-98 97l97 96l98 -97zM739 628l-97 -96l-97 97l96 96zM852 830l-96 -97l-98 98l97 95z" />
    <glyph glyph-name="uFE9B" unicode="&#x62b;" horiz-adv-x="445" arabic-form="initial" 
d="M-54 53q0 23 16 38.5t38 15.5h4h47q54 0 91.5 1.5t62.5 8t39.5 20t21.5 36.5q6 22 0.5 65t-17.5 95t-29 106t-33 98l100 38q5 -13 15.5 -42.5t22.5 -68t23.5 -83t18.5 -88.5t8.5 -83.5t-7.5 -68.5q-15 -49 -43 -77t-65 -42.5t-80.5 -18.5t-88.5 -4h-21t-20 1h-46h-4
q-22 0 -38 15t-16 38zM329 988l-97 -97l-97 98l96 95zM215 786l-96 -96l-98 97l97 96zM348 690l-98 97l97 96l97 -97z" />
    <glyph glyph-name="uFE9C" unicode="&#x62b;" horiz-adv-x="546" arabic-form="medial" 
d="M-54 53q0 23 16 38.5t38 15.5h51q142 0 189 71q22 32 25 72.5t-2.5 76.5t-13.5 61t-8 26l99 40q1 -2 7.5 -20.5t13.5 -48t11 -66.5t0 -77q-2 -57 29 -88q15 -16 35.5 -25t41 -13.5t39 -6t30.5 -1.5h29v-108h-29q-21 0 -49 3t-58.5 11t-60.5 23.5t-55 41.5q-6 5 -13 15
q-83 -94 -260 -94h-47h-4q-22 0 -38 15t-16 38zM382 983l-97 -97l-97 98l96 96zM268 782l-96 -97l-98 98l97 95zM401 685l-98 98l96 95l98 -96z" />
    <glyph glyph-name="uFE9E" unicode="&#x62c;" horiz-adv-x="1194" arabic-form="final" 
d="M757 -102l-104 -104l-105 105l104 104zM844 307q-58 -10 -121 -26t-124 -39t-116 -54.5t-96.5 -73t-66 -93.5t-24.5 -117q0 -181 140 -268q57 -36 131 -52.5t156.5 -14.5t169 23.5t169.5 61.5l47 -97q-99 -48 -202.5 -71.5t-202.5 -23.5q-93 0 -176 20.5t-149 62.5
q-94 59 -142.5 150t-48.5 209q0 81 26.5 146t72 116.5t105.5 91t127.5 68.5t138 48.5t135.5 32.5q-56 21 -99.5 42t-79.5 40q-45 23 -79 38t-66 15q-29 0 -61.5 -12.5t-55.5 -32.5q-23 -19 -40.5 -41t-30 -40.5t-19.5 -31.5l-7 -13l-97 46q1 1 9.5 17.5t24 40.5t38.5 52
t53 53q38 32 88 50.5t98 18.5q51 0 96 -18.5t98 -45.5q34 -18 75 -38t93 -39.5t117 -37t146 -30.5l-7 -107q-2 0 -39 -1.5t-97 -9.5q0 -107 55 -159q25 -24 57.5 -36t61.5 -16t49 -3.5l20 0.5v-107q-1 0 -6 -0.5t-18 -0.5q-20 0 -48.5 2.5t-61 11.5t-66.5 26t-63 46
q-84 79 -87 221z" />
    <glyph glyph-name="uFE9F" unicode="&#x62c;" horiz-adv-x="1061" arabic-form="initial" 
d="M-54 53q0 23 16 38.5t38 15.5q87 0 176 17t174.5 43t164 58.5t143.5 64.5l99 48q-112 26 -188.5 55t-133.5 55q-47 20 -82 33t-67 13q-27 0 -49.5 -13.5t-42 -35.5t-35.5 -50t-31 -56l-96 49q13 26 34.5 63t52.5 70.5t72 57t95 23.5q49 0 94 -16.5t98 -39.5
q36 -16 79 -34t98 -35.5t124 -34t155 -28.5l16 -101q-45 -23 -89 -44q-38 -19 -80 -39t-77 -37q-68 -33 -150.5 -67t-173.5 -62t-186.5 -46t-189.5 -18h-4q-22 0 -38 15t-16 38zM466 -288l84 118l103 -102l-85 -119z" />
    <glyph glyph-name="uFEA0" unicode="&#x62c;" horiz-adv-x="1061" arabic-form="medial" 
d="M-54 53q0 23 16 38.5t38 15.5q101 0 190 17t167 42.5t144 56t121 57.5l48 23l99 48q-111 25 -188 55t-134 55q-47 20 -82 33.5t-67 13.5q-27 0 -49.5 -13.5t-41.5 -35.5t-35.5 -50t-31.5 -56l-95 49q13 26 34.5 62.5t52 70.5t71.5 57.5t95 23.5q49 0 94 -16.5t99 -39.5
q36 -16 79 -34t98 -35.5t123.5 -34t155.5 -28.5l16 -102q-20 -10 -43 -21q-20 -10 -45.5 -22t-52.5 -25q1 -47 20.5 -76t53 -45t80.5 -22t104 -6l1 -54l-1 -54q-21 0 -53 1t-69 6.5t-75.5 18t-72 35.5t-58 58.5t-33.5 87.5l-2 -2q-11 -5 -23 -10.5t-25 -12.5
q-58 -29 -128.5 -61t-154 -59t-180 -45t-206.5 -18q-22 0 -38 15t-16 38zM578 -260l-104 -104l-105 105l104 104z" />
    <glyph glyph-name="uFEA2" unicode="&#x62d;" horiz-adv-x="1233" arabic-form="final" 
d="M883 307q-58 -10 -121 -26t-124 -39t-116 -54.5t-96.5 -73t-66 -93.5t-24.5 -117q0 -181 140 -268q57 -36 131 -52.5t156.5 -14.5t169 23.5t169.5 61.5l47 -97q-99 -48 -202.5 -71.5t-202.5 -23.5q-93 0 -176 20.5t-149 62.5q-94 59 -142.5 150t-48.5 209q0 81 26.5 146
t72 116.5t105.5 91t127.5 68.5t137.5 48.5t136 32.5q-56 21 -99.5 42t-79.5 40q-45 23 -79 38t-66 15q-29 0 -61.5 -12.5t-55.5 -32.5q-23 -19 -40.5 -41t-30 -40.5t-19.5 -31.5l-7 -13l-97 46q1 1 9.5 17.5t24 40.5t38.5 52t53 53q38 32 88 50.5t98 18.5q51 0 96 -18.5
t98 -45.5q34 -18 75 -38t93 -39.5t117 -37t146 -30.5l-7 -107q-2 0 -39 -1.5t-97 -9.5q0 -107 55 -159q25 -24 57.5 -36t62 -16t50 -3.5l20.5 0.5v-107q-1 0 -7 -0.5t-19 -0.5q-20 0 -48.5 2.5t-61 11.5t-66.5 26t-63 46q-84 79 -87 221z" />
    <glyph glyph-name="uFEA3" unicode="&#x62d;" horiz-adv-x="1063" arabic-form="initial" 
d="M-54 53q0 23 16 38.5t38 15.5q87 0 176.5 17t175 43t163.5 58.5t143 63.5q22 11 47.5 23.5t51.5 25.5q-111 25 -187.5 54.5t-134.5 54.5q-47 21 -82 34t-67 13q-27 0 -49.5 -13.5t-41.5 -35.5t-35.5 -50t-31.5 -56l-95 49q13 26 34.5 62.5t52 70.5t71.5 57.5t95 23.5
q49 0 94 -16.5t99 -39.5q36 -16 79 -34t98 -35.5t123.5 -34t155.5 -28.5l16 -101q-45 -23 -89 -44q-38 -19 -80.5 -39t-76.5 -37q-69 -33 -152 -67.5t-174.5 -62t-188 -45.5t-190.5 -18q-22 0 -38 15t-16 38z" />
    <glyph glyph-name="uFEA4" unicode="&#x62d;" horiz-adv-x="1061" arabic-form="medial" 
d="M-54 53q0 23 16 38.5t38 15.5q101 0 189.5 16.5t165 42t141.5 56t120 57.5l48 23l99 48q-111 25 -188 55t-134 55q-47 20 -82 33.5t-67 13.5q-27 0 -49.5 -13.5t-41.5 -35.5t-35.5 -50t-31.5 -56l-95 49q13 26 34.5 62.5t52 70.5t71.5 57.5t95 23.5q49 0 94 -16.5
t99 -39.5q36 -16 79 -34t98 -35.5t123.5 -34t155.5 -28.5l16 -102q-20 -10 -43 -21q-20 -10 -45.5 -22t-52.5 -25q1 -47 20.5 -76t53 -45t80.5 -22t104 -6l1 -54l-1 -54q-21 0 -53 1t-69 6.5t-75.5 18t-72 35.5t-58 58.5t-33.5 87.5l-2 -2q-11 -5 -23 -10.5t-25 -12.5
q-58 -29 -127 -61t-151 -58.5t-177 -44.5t-204 -18h-4q-22 0 -38 15t-16 38z" />
    <glyph glyph-name="uFEA6" unicode="&#x62e;" horiz-adv-x="1194" arabic-form="final" 
d="M844 307q-58 -10 -121 -26t-124 -39t-116 -54.5t-96.5 -73t-66 -93.5t-24.5 -117q0 -181 140 -268q57 -36 131 -52.5t156.5 -14.5t169 23.5t169.5 61.5l47 -97q-99 -48 -202.5 -71.5t-202.5 -23.5q-93 0 -176 20.5t-149 62.5q-94 59 -142.5 150t-48.5 209q0 81 26.5 146
t72 116.5t105.5 91t127.5 68.5t138 48.5t135.5 32.5q-56 21 -99.5 42t-79.5 40q-45 23 -79 38t-66 15q-29 0 -61.5 -12.5t-55.5 -32.5q-23 -19 -40.5 -41t-30 -40.5t-19.5 -31.5l-7 -13l-97 46q1 1 9.5 17.5t24 40.5t38.5 52t53 53q38 32 88 50.5t98 18.5q51 0 96 -18.5
t98 -45.5q34 -18 75 -38t93 -39.5t117 -37t146 -30.5l-7 -107q-2 0 -39 -1.5t-97 -9.5q0 -107 55 -159q25 -24 57.5 -36t62 -16t50 -3.5l20.5 0.5v-107q-1 0 -7 -0.5t-19 -0.5q-20 0 -48.5 2.5t-61 11.5t-66.5 26t-63 46q-84 79 -87 221zM611 895l-101 -102l-103 103
l102 101z" />
    <glyph glyph-name="uFEA7" unicode="&#x62e;" horiz-adv-x="1088" arabic-form="initial" 
d="M-54 53q0 23 16 38.5t38 15.5q87 0 176.5 17t175 43t163.5 58.5t143 63.5q22 11 47.5 23.5t51.5 25.5q-111 25 -187.5 54.5t-134.5 54.5q-47 21 -82 34t-67 13q-27 0 -49.5 -13.5t-41.5 -35.5t-35.5 -50t-31.5 -56l-95 49q13 26 34.5 62.5t52 70.5t71.5 57.5t95 23.5
q49 0 94 -16.5t99 -39.5q36 -16 79 -34t98 -35.5t123.5 -34t155.5 -28.5l16 -101q-45 -23 -89 -44q-38 -19 -80.5 -39t-76.5 -37q-68 -33 -151 -67t-173.5 -62t-186.5 -46t-190 -18h-4q-22 0 -38 15t-16 38zM369 873l-101 -101l-102 102l102 102z" />
    <glyph glyph-name="uFEA8" unicode="&#x62e;" horiz-adv-x="1061" arabic-form="medial" 
d="M-54 53q0 23 16 38.5t38 15.5q101 0 190 17t167 42.5t144 56t121 57.5l48 23l99 48q-111 25 -188 55t-134 55q-47 20 -82 33.5t-67 13.5q-27 0 -49.5 -13.5t-41.5 -35.5t-35.5 -50t-31.5 -56l-95 49q13 26 34.5 62.5t52 70.5t71.5 57.5t95 23.5q49 0 94 -16.5t99 -39.5
q36 -16 79 -34t98 -35.5t123.5 -34t155.5 -28.5l16 -102q-20 -10 -43 -21q-20 -10 -45.5 -22t-52.5 -25q1 -47 20.5 -76t53 -45t80.5 -22t104 -6l1 -54l-1 -54q-21 0 -53 1t-69 6.5t-75.5 18t-72 35.5t-58 58.5t-33.5 87.5l-2 -2q-11 -5 -23 -10.5t-25 -12.5
q-58 -29 -128.5 -61t-154 -59t-180 -45t-206.5 -18q-22 0 -38 15t-16 38zM409 875l-102 -102l-102 103l102 102z" />
    <glyph glyph-name="uFEAA" unicode="&#x62f;" horiz-adv-x="836" arabic-form="final" 
d="M833 107h15v-107h-15q-107 2 -176 90q-18 -16 -43.5 -32t-59 -29t-77 -21t-97.5 -8q-79 0 -132.5 16t-87 35.5t-48 37t-15.5 19.5l73 82q0 -1 13.5 -14t39.5 -28t65.5 -28t91.5 -13t90.5 8.5t65 21t42.5 26.5t25 25q-7 16 -11 29l-193 467l99 41l215 -520v-1
q16 -35 33.5 -54.5t33.5 -28.5t29.5 -11.5t23.5 -2.5z" />
    <glyph glyph-name="uFEAC" unicode="&#x630;" horiz-adv-x="837" arabic-form="final" 
d="M822 107h18v-107h-18q-107 2 -176 90q-18 -16 -43.5 -32t-59 -29t-77 -21t-97.5 -8q-66 0 -116.5 16t-85.5 35.5t-53.5 37t-19.5 19.5l65 82q0 -1 15.5 -14t43 -28t66 -28t85.5 -13q52 0 90.5 8.5t65 21t42.5 26.5t25 25q-7 16 -11 29l-193 467l99 41l215 -520v-1
q16 -35 33.5 -54.5t33.5 -28.5t29.5 -11.5t23.5 -2.5zM552 1014l-96 -97l-98 98l97 95z" />
    <glyph glyph-name="uFEAE" unicode="&#x631;" horiz-adv-x="770" arabic-form="final" 
d="M770 108v-108q-34 0 -85.5 13t-104.5 45q-2 -57 -22.5 -122.5t-70.5 -133.5t-136.5 -136.5t-220.5 -130.5l-46 97q389 180 389 444q0 34 -9 72t-21 72.5t-24.5 62.5t-20.5 42l94 52q2 -3 20 -39t36 -90q20 -43 51 -70.5t63.5 -43t61.5 -21t46 -5.5z" />
    <glyph glyph-name="uFEB0" unicode="&#x632;" horiz-adv-x="770" arabic-form="final" 
d="M596 735l-102 -101l-101 102l101 101zM770 107v-107q-2 0 -17.5 1.5t-39.5 6.5t-53 14.5t-59 24.5q-3 -56 -23.5 -121t-70.5 -133t-136.5 -136t-219.5 -130l-46 97q195 91 292 202t97 242q0 34 -9 72t-21 72.5t-24.5 62.5t-20.5 43l94 51q1 -2 6.5 -12.5t14 -28.5
t18.5 -42.5t19 -52.5q8 -28 26 -48.5t40.5 -34.5t45.5 -22.5t42.5 -13t32 -6z" />
    <glyph glyph-name="uFEB2" unicode="&#x633;" horiz-adv-x="2098" arabic-form="final" 
d="M1997 159q12 -15 27.5 -25t29.5 -16t26 -8.5t18 -2.5v-107q-17 0 -40 5t-48 15.5t-50 28t-46 42.5l-5 7l-11 -14q-74 -85 -199 -85q-3 0 -6 0.5t-6 0.5q-51 2 -103 31.5t-92 80.5l-5 7l-16 -22t-18 -21q-72 -76 -185 -76q-45 0 -82.5 13.5t-66.5 34.5q-4 -241 -130 -365
t-370 -124q-22 0 -67 4t-99 19t-109 45t-97 82q-110 135 -60 363q10 45 26 91.5t31.5 84.5t27 63.5t12.5 27.5l97 -48l-11 -23t-25.5 -58.5t-29 -78t-23.5 -82.5q-38 -178 38 -272q32 -39 76.5 -61.5t87.5 -33.5t78 -13.5t47 -2.5q199 0 295.5 97t96.5 297q0 57 -12.5 112
t-27.5 99t-28 71.5t-13 28.5l96 49l7.5 -15t15.5 -35.5t20 -52.5t21 -66q3 -7 15.5 -30.5t35 -48.5t54 -45t73.5 -20q67 0 107 43q38 40 56 116t12 176l108 6q2 -34 0.5 -79t-9.5 -93q-4 -21 5 -46.5t29 -51.5q25 -30 56.5 -50t57.5 -21q82 -3 127 47q27 31 40 76.5t17 92
t1.5 88t-6.5 64.5l106 17q0 -3 3 -22.5t4.5 -50.5t0.5 -71t-8 -82q-12 -66 22 -107z" />
    <glyph glyph-name="uFEB3" unicode="&#x633;" horiz-adv-x="1148" arabic-form="initial" 
d="M-54 53q0 23 16 38.5t38 15.5q54 0 93 28t66 65.5t42 74.5t20 54v2q1 1 1 2q7 22 12.5 44t10 39t7 28l2.5 11l105 -23q0 -1 -3 -12t-7.5 -29t-10.5 -41.5t-13 -47.5q-6 -20 -10 -41.5t-4 -43.5t5.5 -43t18.5 -39q26 -35 74 -35q42 0 74.5 24t56 57.5t39 70.5t23.5 64v1
q6 18 12.5 45.5t12 53t9 43l3.5 17.5l106 -20l-3.5 -18t-9 -43.5t-12.5 -53.5t-13 -49q-18 -96 26 -149q20 -24 42.5 -33.5t35.5 -9.5q37 0 61 6.5t38.5 15t21.5 17.5t10 14q15 25 18.5 60t-1.5 74t-16 79.5t-24 77.5t-26.5 67t-22.5 49l95 50q4 -9 18.5 -38.5t30.5 -72
t31 -95t21.5 -106t0 -106t-32.5 -94.5q-64 -106 -223 -106q-16 0 -36 4.5t-41.5 14t-43 25t-40.5 38.5q-13 15 -27 41q-43 -60 -97 -91.5t-117 -31.5q-50 0 -91 20.5t-70 59.5q-14 18 -23 40q-42 -48 -97 -79.5t-124 -32.5h-4q-22 0 -38 15t-16 38z" />
    <glyph glyph-name="uFEB4" unicode="&#x633;" horiz-adv-x="1237" arabic-form="medial" 
d="M-54 53q0 23 16 38.5t38 15.5q51 0 89 27.5t64.5 64.5t42.5 75.5t23 60.5q0 2 1 3q7 23 11 38.5t7 26.5l5 20l105 -21q0 -2 -5.5 -23.5t-19.5 -69.5l-1 -4q-15 -51 -12 -93t23 -70q26 -35 74 -35q31 0 57 13.5t47 35.5t37 49t27.5 53.5t19 49.5t11.5 37q6 21 10 36.5
t6 25.5q3 11 4 19l106 -17q1 4 -2 -8.5t-7.5 -33t-10.5 -42.5t-10 -36q-8 -26 -9 -47t2.5 -38t10 -30t13.5 -22q18 -24 40 -34.5t38 -10.5q32 1 60.5 15.5t53.5 40.5q40 44 59 109.5t14 141.5l108 7q3 -47 -2 -90.5t-16 -84.5q-5 -20 3 -44t26 -46q19 -23 42 -36t46 -13h49
v-107h-51q-48 0 -92 23.5t-78 65.5q-4 5 -7.5 9.5t-6.5 9.5l-15 -17q-39 -43 -87.5 -66t-102.5 -25h-4q-45 0 -88.5 23.5t-74.5 63.5q-5 6 -9 13t-9 14q-42 -56 -95 -85.5t-113 -29.5q-50 0 -91 20.5t-69 58.5q-13 17 -22 37q-38 -48 -92 -81t-129 -34h-4q-22 0 -38 15
t-16 38z" />
    <glyph glyph-name="uFEB6" unicode="&#x634;" horiz-adv-x="2096" arabic-form="final" 
d="M1485 750l-91 -92l-92 93l91 90zM1595 945l-90 -92l-93 93l92 91zM1616 658l-92 93l91 90l92 -91zM1995 159q12 -15 27.5 -25t30.5 -16t27 -8.5t18 -2.5v-107q-17 0 -40 5t-48.5 15.5t-51 28t-46.5 42.5l-5 7l-11 -14q-74 -85 -199 -85q-3 0 -6 0.5t-6 0.5
q-51 2 -103 31.5t-92 80.5l-5 7l-16 -22t-18 -21q-72 -76 -185 -76q-45 0 -82.5 13.5t-66.5 34.5q-4 -241 -130 -365t-370 -124q-22 0 -67 4t-99 19t-109 45t-97 82q-110 135 -60 363q10 45 26 91.5t31.5 84.5t27 63.5t12.5 27.5l97 -48l-11 -23t-25.5 -58.5t-29 -78
t-23.5 -82.5q-38 -178 38 -272q32 -39 76.5 -61.5t87.5 -33.5t78 -13.5t47 -2.5q199 0 295.5 97t96.5 297q0 57 -12.5 112t-27.5 99t-28 71.5t-13 28.5l96 49l7.5 -15t15.5 -35.5t20 -52.5t21 -66q3 -7 15.5 -30.5t35 -48.5t54 -45t73.5 -20q67 0 107 43q38 40 56 116
t12 176l108 6q2 -34 0.5 -79t-9.5 -93q-4 -21 5 -46.5t29 -51.5q25 -30 56.5 -50t57.5 -21q82 -3 127 47q27 31 40 76.5t17 92t1.5 88t-6.5 64.5l106 17q0 -3 3 -22.5t4.5 -50.5t0.5 -71t-8 -82q-12 -66 22 -107z" />
    <glyph glyph-name="uFEB7" unicode="&#x634;" horiz-adv-x="1148" arabic-form="initial" 
d="M-54 53q0 23 16 38.5t38 15.5q54 0 93 28t66 65.5t42 74.5t20 54v2q1 1 1 2q7 22 12.5 44t10 39t7 28l2.5 11l105 -23q0 -1 -3 -12t-7.5 -29t-10.5 -41.5t-13 -47.5q-6 -20 -10 -41.5t-4 -43.5t5.5 -43t18.5 -39q26 -35 74 -35q42 0 74.5 24t56 57.5t39 70.5t23.5 64v1
q6 18 12.5 45.5t12 53t9 43l3.5 17.5l106 -20l-3.5 -18t-9 -43.5t-12.5 -53.5t-13 -49q-18 -96 26 -149q20 -24 42.5 -33.5t35.5 -9.5q37 0 61 6.5t38.5 15t21.5 17.5t10 14q15 25 18.5 60t-1.5 74t-16 79.5t-24 77.5t-26.5 67t-22.5 49l95 50q4 -9 18.5 -38.5t30.5 -72
t31 -95t21.5 -106t0 -106t-32.5 -94.5q-64 -106 -223 -106q-16 0 -36 4.5t-41.5 14t-43 25t-40.5 38.5q-13 15 -27 41q-43 -60 -97 -91.5t-117 -31.5q-50 0 -91 20.5t-70 59.5q-14 18 -23 40q-42 -48 -97 -79.5t-124 -32.5h-4q-22 0 -38 15t-16 38zM686 838l-93 93l95 94
l92 -91zM576 643l-93 93l95 94l92 -92zM799 830l93 -92l-95 -95l-91 93z" />
    <glyph glyph-name="uFEB8" unicode="&#x634;" horiz-adv-x="1237" arabic-form="medial" 
d="M-54 53q0 23 16 38.5t38 15.5q51 0 89 27.5t64.5 64.5t42.5 75.5t23 60.5q0 2 1 3q7 23 11 38.5t7 26.5l5 20l105 -21q0 -2 -5.5 -23.5t-19.5 -69.5l-1 -4q-15 -51 -12 -93t23 -70q26 -35 74 -35q31 0 57 13.5t47 35.5t37 49t27.5 53.5t19 49.5t11.5 37q6 21 10 36.5
t6 25.5q3 11 4 19l106 -17q1 4 -2 -8.5t-7.5 -33t-10.5 -42.5t-10 -36q-8 -26 -9 -47t2.5 -38t10 -30t13.5 -22q18 -24 40 -34.5t38 -10.5q32 1 60.5 15.5t53.5 40.5q40 44 59 109.5t14 141.5l108 7q3 -47 -2 -90.5t-16 -84.5q-5 -20 3 -44t26 -46q19 -23 42 -36t46 -13h49
v-107h-51q-48 0 -92 23.5t-78 65.5q-4 5 -7.5 9.5t-6.5 9.5l-15 -17q-39 -43 -87.5 -66t-102.5 -25h-4q-45 0 -88.5 23.5t-74.5 63.5q-5 6 -9 13t-9 14q-42 -56 -95 -85.5t-113 -29.5q-50 0 -91 20.5t-69 58.5q-13 17 -22 37q-38 -48 -92 -81t-129 -34h-4q-22 0 -38 15
t-16 38zM686 838l-93 93l95 94l92 -91zM576 643l-93 93l95 94l92 -92zM799 830l93 -92l-95 -95l-91 93z" />
    <glyph glyph-name="uFEBA" unicode="&#x635;" horiz-adv-x="1984" arabic-form="final" 
d="M1955 107h32v-107h-44q-52 2 -90.5 23t-60.5 58q-57 -37 -136.5 -58.5t-182.5 -21.5q-10 -1 -31.5 -2.5t-53.5 -1.5t-71.5 2.5t-81.5 9t-84 18t-80 30.5q-2 -245 -128.5 -371t-371.5 -126q-22 0 -67 4t-99 19t-109.5 45t-97.5 82q-109 136 -59 363q10 45 26.5 92.5
t32.5 87t28.5 66t13.5 28.5l96 -47l-11 -24.5t-26 -61t-30.5 -80.5t-24.5 -84q-39 -177 38 -272q32 -39 76.5 -61.5t87.5 -33.5t77.5 -13.5t47.5 -2.5q199 0 295.5 97t96.5 297q0 57 -13 112.5t-28.5 99.5t-29 71.5t-13.5 28.5l95 50l10 -20t21 -47.5t25.5 -68.5t23.5 -84
q12 -16 32 -31q22 28 56.5 69t79.5 85.5t98 89t112.5 80t123.5 57.5t130 22q59 0 109.5 -20t85.5 -58q33 -35 49 -80t13 -96q-2 -44 -18.5 -86t-47.5 -80q4 -20 21 -34t57 -14zM1471 108q91 0 158.5 19t112.5 49.5t68.5 70t25.5 80.5q3 59 -33 97q-20 21 -50.5 32.5
t-66.5 11.5q-63 0 -130 -30t-132.5 -78.5t-126 -109.5t-109.5 -122q37 -10 77.5 -15t78 -6.5t69.5 -1t53 2.5h5z" />
    <glyph glyph-name="uFEBB" unicode="&#x635;" horiz-adv-x="1218" arabic-form="initial" 
d="M-54 53q0 23 16 38.5t38 15.5h4q45 1 79 21.5t59.5 51.5t42.5 68t28 72q2 11 4.5 18.5t4.5 12.5q9 35 12.5 57.5t3.5 23.5l107 -10q0 -3 -1.5 -14t-5 -29t-8.5 -41t-13 -49q-4 -20 -2.5 -47.5t19.5 -53.5l8 -10q13 17 43.5 54t73 81.5t96 92t113.5 86.5t124 64t128 25
q52 0 97.5 -24.5t76.5 -69.5q38 -54 45.5 -124.5t-18.5 -137.5q-20 -54 -64.5 -98t-107.5 -74.5t-142.5 -47.5t-169.5 -17q-149 0 -247.5 35t-145.5 106q-1 1 -1 3q-39 -55 -97 -93t-142 -39h-4q-22 0 -38 15t-16 38zM1021 263q16 43 12 86.5t-27 76.5q-11 17 -32 32t-54 15
q-44 0 -91 -18t-94 -47.5t-91.5 -67.5t-83.5 -77t-71.5 -76t-54.5 -65q78 -27 203 -27q83 0 149 14.5t114 38.5t78.5 54t42.5 61z" />
    <glyph glyph-name="uFEBC" unicode="&#x635;" horiz-adv-x="1208" arabic-form="medial" 
d="M-54 53q0 22 15 37t36 17h3h4h17q57 2 96 24.5t64.5 55t39 70t20 70.5t7.5 56t1 26l108 1q0 -36 -6.5 -80.5t-23.5 -91.5q-2 -44 24 -71q4 -5 7.5 -8t8.5 -7q11 17 38.5 55t68 85.5t92 98t111 92t125 68.5t133.5 27q54 0 104 -24.5t82 -68.5q13 -18 24.5 -42.5t17 -57
t2.5 -72.5t-18 -89q-11 -35 -28 -63.5t-39 -51.5q33 -1 62 -1t49 -1h26v-107h-26q-28 0 -71.5 1t-88.5 2t-85 2.5t-62 1.5q-57 -13 -115 -16.5t-108 -3.5h-51q-10 1 -19 1h-17q-13 0 -49 2.5t-81 13t-92 32t-81 59.5q-4 4 -7 8l-6 8q-38 -46 -95.5 -76.5t-136.5 -34.5h-29
q-21 1 -36 16t-15 37zM1044 256q33 105 -10 165q-20 28 -48.5 39t-50.5 11q-46 0 -92.5 -18.5t-92 -48.5t-87.5 -69t-79 -79t-67 -79t-50 -69q30 -7 58.5 -10t48.5 -3h38q66 -1 132 2t124 17v2h1q1 0 1 -0.5t2 -0.5q31 8 58 20t49.5 29t39 39.5t25.5 52.5z" />
    <glyph glyph-name="uFEBE" unicode="&#x636;" horiz-adv-x="1985" arabic-form="final" 
d="M1758 878l-102 -101l-102 102l101 102zM1955 107h32v-107h-44q-52 2 -90.5 23t-60.5 58q-57 -37 -136.5 -58.5t-182.5 -21.5q-10 -1 -31.5 -2.5t-53.5 -1.5t-71.5 2.5t-81.5 9t-84 18t-80 30.5q-2 -245 -128.5 -371t-371.5 -126q-22 0 -67 4t-99 19t-109.5 45t-97.5 82
q-109 136 -59 363q10 45 26.5 92.5t32.5 87t28.5 66t13.5 28.5l96 -47l-11 -24.5t-26 -61t-30.5 -80.5t-24.5 -84q-39 -177 38 -272q32 -39 76.5 -61.5t87.5 -33.5t77.5 -13.5t47.5 -2.5q199 0 295.5 97t96.5 297q0 57 -13 112.5t-28.5 99.5t-29 71.5t-13.5 28.5l95 50
l10 -20t21 -47.5t25.5 -68.5t23.5 -84q12 -16 32 -31q22 28 56.5 69t79.5 85.5t98 89t112.5 80t123.5 57.5t130 22q59 0 109.5 -20t85.5 -58q33 -35 49 -80t13 -96q-2 -44 -18.5 -86t-47.5 -80q4 -20 21 -34t57 -14zM1471 108q91 0 158.5 19t112.5 49.5t68.5 70t25.5 80.5
q3 59 -33 97q-20 21 -50.5 32.5t-66.5 11.5q-63 0 -130 -30t-132.5 -78.5t-126 -109.5t-109.5 -122q37 -10 77.5 -15t78 -6.5t69.5 -1t53 2.5h5z" />
    <glyph glyph-name="uFEBF" unicode="&#x636;" horiz-adv-x="1220" arabic-form="initial" 
d="M-54 53q0 23 16 38.5t38 15.5h4q45 1 79 21.5t59.5 51.5t42.5 68t28 72q2 11 4.5 18.5t4.5 12.5q9 35 12.5 57.5t3.5 23.5l107 -10q0 -3 -1.5 -14t-5 -29t-8.5 -41t-13 -49q-4 -20 -2.5 -47.5t19.5 -53.5l8 -10q13 17 43.5 54t73 81.5t96 92t113.5 86.5t124 64t128 25
q52 0 97.5 -24.5t76.5 -69.5q38 -54 45.5 -124.5t-18.5 -137.5q-20 -54 -64.5 -98t-107.5 -74.5t-142.5 -47.5t-169.5 -17q-149 0 -247.5 35t-145.5 106q-1 1 -1 3q-39 -55 -97 -93t-142 -39h-4q-22 0 -38 15t-16 38zM1021 263q16 43 12 86.5t-27 76.5q-11 17 -32 32t-54 15
q-44 0 -91 -18t-94 -47.5t-91.5 -67.5t-83.5 -77t-71.5 -76t-54.5 -65q78 -27 203 -27q83 0 149 14.5t114 38.5t78.5 54t42.5 61zM1000 851l-101 -101l-103 102l102 102z" />
    <glyph glyph-name="uFEC0" unicode="&#x636;" horiz-adv-x="1208" arabic-form="medial" 
d="M-54 53q0 23 16 38.5t38 15.5h1h31q57 2 96 24.5t64.5 55t39 70t20 70.5t7.5 56t1 26l108 1q0 -36 -6.5 -80.5t-23.5 -91.5q-2 -44 24 -71q4 -5 7.5 -8t8.5 -7q11 17 38.5 55t68 85.5t92 98t111 92t125 68.5t133.5 27q54 0 104 -24.5t82 -68.5q13 -18 24.5 -42.5t17 -57
t2.5 -72.5t-18 -89q-11 -35 -28 -63.5t-39 -51.5q33 -1 62 -1t49 -1h10v-107h-10q-28 0 -71.5 1t-88.5 2t-85 2.5t-62 1.5q-57 -13 -115 -16.5t-108 -3.5h-51q-10 1 -19 1h-17q-13 0 -49 2.5t-81 13t-92 32t-81 59.5q-4 4 -7 8l-6 8q-38 -46 -95.5 -76.5t-136.5 -34.5h-36
h-1q-22 0 -38 15t-16 38zM1055 256q33 105 -10 165q-20 28 -48.5 39t-50.5 11q-46 0 -92.5 -18.5t-92 -48.5t-87.5 -69t-79 -79t-67 -79t-50 -69q30 -7 58.5 -10t48.5 -3h38q66 -1 132 2t124 17v2h1q1 0 1 -0.5t2 -0.5q31 8 58 20t49.5 29t39 39.5t25.5 52.5zM1050 881
l-101 -101l-102 102l101 101z" />
    <glyph glyph-name="uFEC2" unicode="&#x637;" horiz-adv-x="1192" arabic-form="final" 
d="M1195 0l-508 -1q-15 -1 -29.5 -1h-29.5h-55q-16 1 -33 1h-35q-118 0 -197 7.5t-127 17.5t-70 18.5t-26 10.5l26 47l25 48q1 0 31 -10t104 -19q12 17 40.5 56t69.5 88q8 25 11 72.5t2 109t-4.5 133.5t-9.5 148t-13 151.5t-14 142.5l107 10q2 -23 6.5 -62.5t9.5 -90
t10 -110t9 -122t5.5 -126.5t0.5 -124q11 11 21 20.5t21 19.5q72 64 141.5 105.5t132.5 59.5t118 12.5t99 -36.5q58 -41 84 -109t14 -148q-10 -63 -39.5 -118t-73.5 -94h176v-107zM575 106q51 -1 98 0v1h10q42 2 88.5 11.5t111.5 30.5q27 9 50.5 26.5t42 42.5t31.5 54.5
t18 62.5q2 12 2.5 31t-4 40.5t-16 43t-35.5 38.5q-32 22 -76 18t-92.5 -25t-97.5 -55t-91 -71q-33 -30 -65 -63t-60 -66t-51.5 -63t-41.5 -54q24 -1 51 -1.5t57 -0.5q19 0 36 -0.5t34 -0.5z" />
    <glyph glyph-name="uFEC3" unicode="&#x637;" horiz-adv-x="945" arabic-form="initial" 
d="M-54 53q0 23 16 38.5t38 15.5h40q3 4 16 21.5t31.5 42t40.5 53t44 56.5q8 24 11.5 69.5t3 105.5t-4.5 131t-9.5 145t-12.5 148t-14 139l107 11q2 -22 6.5 -60t9.5 -87t10 -106.5t9 -118.5t5.5 -123t0.5 -120q44 44 85 78.5t86.5 58.5t100 36.5t125.5 12.5
q57 0 102.5 -25.5t75.5 -73.5q18 -28 28.5 -60t13.5 -65t-1.5 -65t-17.5 -59q-40 -87 -104 -137.5t-146.5 -76.5t-181 -33t-206.5 -7q-26 0 -52.5 0.5t-53.5 0.5q-28 0 -56 0.5t-57 0.5h-31h-4q-22 0 -38 15t-16 38zM795 298q6 13 8.5 30.5t1 37t-8 40t-17.5 38.5
q-32 49 -88 49q-63 0 -108 -11t-84 -35t-78.5 -61t-91.5 -89l-3 -2q-11 -11 -29 -32.5t-39 -47.5t-43 -54.5t-41 -54.5q112 -1 210.5 2t178.5 21.5t139.5 57.5t92.5 111z" />
    <glyph glyph-name="uFEC4" unicode="&#x637;" horiz-adv-x="987" arabic-form="medial" 
d="M-54 53q0 23 16 38.5t38 15.5h4h39l27 37q14 18 30.5 41t36.5 49q12 21 18.5 67t8.5 108t-0.5 137t-7.5 155t-12 161.5t-15 156.5l106 12l12 -105t14.5 -159t10 -188t-1.5 -192q41 42 87.5 80.5t97.5 67.5t105.5 46.5t111.5 17.5q77 0 132.5 -37t81.5 -105
q16 -41 18 -87.5t-7.5 -91t-30.5 -83.5t-51 -66q-6 -6 -12.5 -11.5t-13.5 -10.5h206v-107h-991h-4q-22 0 -38 15t-16 38zM745 210q15 13 27.5 37.5t18.5 53.5t5.5 60t-10.5 58q-28 73 -114 73q-50 0 -100 -19.5t-97 -52t-91 -73.5t-82.5 -84t-70.5 -83.5t-55 -72.5h287
q79 0 152 27t130 76z" />
    <glyph glyph-name="uFEC6" unicode="&#x638;" horiz-adv-x="1280" arabic-form="final" 
d="M1285 107v-107l-513 -1q-15 -1 -29.5 -1h-28.5h-56q-16 1 -32.5 1h-35.5q-118 0 -197 7.5t-127 17.5t-70 18.5t-26 10.5l27 47l25 48q12 -5 30 -10q16 -5 41.5 -9.5t63.5 -9.5q12 17 40 56t69 88q8 25 11 72.5t2.5 109t-4 134t-9 148.5t-12 151t-13.5 143l106 10
q2 -23 6.5 -62.5t9.5 -90t10 -110t8.5 -122.5t5 -127t-0.5 -124q20 20 43 40q72 64 141 105.5t132.5 59.5t118.5 12.5t98 -36.5q59 -41 84.5 -109t13.5 -148q-10 -63 -39 -118t-74 -94h181zM968 149q27 9 50.5 26.5t42.5 42.5t32 54.5t18 62.5q2 12 2.5 31t-4 40.5t-16.5 43
t-36 38.5q-32 22 -76 18t-92.5 -25t-97.5 -55t-91 -71q-33 -30 -65 -63t-60 -66t-51.5 -63t-41.5 -54q24 -1 51 -1.5t57 -0.5q19 0 36.5 -0.5t33.5 -0.5q52 -1 99 0v1h10q42 2 88 11.5t111 30.5zM1047 871l-102 -101l-102 102l101 102z" />
    <glyph glyph-name="uFEC7" unicode="&#x638;" horiz-adv-x="955" arabic-form="initial" 
d="M-54 53q0 23 16 38.5t38 15.5h41q3 4 15.5 21t31 41.5t41 53.5t44.5 57q8 24 11.5 70t3 107t-4 133t-9 147t-12 149t-13.5 140l106 11q4 -33 11.5 -102t14 -155.5t11 -182.5t2.5 -183q45 44 85.5 78.5t86.5 58.5t100 36.5t126 12.5q56 0 101.5 -25t76.5 -73
q18 -28 28.5 -60.5t13.5 -65.5t-1.5 -65t-17.5 -59q-41 -87 -105 -137.5t-146.5 -76.5t-181 -33t-206.5 -7q-26 0 -52.5 0.5t-52.5 0.5q-28 0 -56 0.5t-57 0.5h-32h-4q-22 0 -38 15t-16 38zM795 298q6 13 8.5 30.5t1 37t-7.5 40t-18 38.5q-31 49 -87 49q-63 0 -108 -11
t-84.5 -35t-79 -61t-91.5 -89l-2 -2q-11 -11 -29 -32.5t-39 -47.5t-43 -54.5t-42 -54.5q112 -1 210.5 2t179 21.5t139.5 57.5t92 111zM753 881l-102 -101l-102 102l101 102z" />
    <glyph glyph-name="uFEC8" unicode="&#x638;" horiz-adv-x="986" arabic-form="medial" 
d="M788 108h207v-108h-801q-32 0 -53 0.5t-41 -0.5h-96h-4q-22 0 -38 15t-16 38t16 38.5t38 15.5h4h38l27 37q14 19 30.5 41.5t36.5 48.5q12 21 18.5 66.5t8.5 107.5t0 136.5t-6.5 154.5t-12 161t-15.5 156l107 11q4 -35 11.5 -104t14 -157.5t9.5 -187t-2 -191.5
q42 42 88.5 81t97.5 68t105.5 46.5t111.5 17.5q77 0 132.5 -37t81.5 -106q15 -41 17.5 -87.5t-7.5 -91t-30.5 -83.5t-50.5 -66zM744 210q16 14 28 38t18.5 53t5.5 60t-11 58q-27 74 -113 74q-50 0 -100 -19.5t-97.5 -52t-91 -73.5t-82 -84t-70.5 -83.5t-55 -72.5h286
q79 0 152.5 26.5t129.5 75.5zM633 984l-101 -102l102 -102l102 101z" />
    <glyph glyph-name="uFECA" unicode="&#x639;" horiz-adv-x="984" arabic-form="final" 
d="M980 -337l46 -98q-3 -1 -37.5 -15.5t-90.5 -31.5t-130 -31t-155 -14q-86 0 -168 25.5t-147 75.5t-104.5 124t-39.5 172q0 72 28.5 128.5t75 101.5t106.5 81t123 66q-39 37 -72.5 71t-58.5 60t-40 41.5l-15 15.5v73q2 2 26.5 24.5t69 48.5t108 47t143.5 21q183 0 257 -80
q46 -50 41 -120q-3 -42 -21.5 -73.5t-47 -55.5t-64.5 -43t-74 -37q-14 -7 -28.5 -13.5t-29.5 -14.5q1 0 1 -0.5t1 -0.5q4 -4 7.5 -7t6.5 -7q22 -20 42.5 -35.5t49.5 -27t72.5 -18.5t112.5 -8l12 -1v-107h-15q-78 2 -131 11t-91 24t-66.5 36t-57.5 47q-3 3 -6.5 6t-7.5 6
q-10 10 -20 19l-20 18q-72 -33 -129 -65t-97 -67.5t-61.5 -76t-21.5 -88.5q0 -74 31 -128.5t81 -90t113 -53t126 -17.5q72 0 138.5 12.5t117 28t80.5 28.5t31 13zM648 541q-40 0 -75 -7t-64 -18t-52 -24t-39 -25q30 -31 77.5 -78.5t102.5 -99.5q25 14 48.5 25.5t45.5 22.5
q39 19 66.5 33.5t44.5 28t25.5 27t10.5 31.5q1 23 -13 39q-5 5 -16 13t-31.5 15t-52.5 12t-78 5z" />
    <glyph glyph-name="uFECB" unicode="&#x639;" horiz-adv-x="706" arabic-form="initial" 
d="M-54 53q0 23 16 38.5t38 15.5h4q48 0 96 3t94 8q-12 8 -21 15t-17 14q-27 25 -46 55t-29.5 61.5t-11.5 63t8 61.5q69 222 292 222q51 0 97.5 -16t82 -35.5t57.5 -36.5t24 -18l-36 -41l-35 -40l-16.5 12.5t-42.5 27t-60.5 27t-70.5 12.5q-27 0 -54 -4.5t-52 -20
t-46.5 -44.5t-36.5 -77q-8 -23 2.5 -59.5t47.5 -70.5q12 -12 34.5 -26.5t56 -25t80 -14t106.5 7.5q30 6 63.5 15.5t71.5 24.5l40 -100q-42 -16 -79 -26.5t-71 -17.5q-3 -1 -25.5 -6t-60 -12t-87.5 -15t-108 -15t-122 -11.5t-129 -4.5q-22 0 -38 15t-16 38z" />
    <glyph glyph-name="uFECC" unicode="&#x639;" horiz-adv-x="764" arabic-form="medial" 
d="M-54 53q0 22 15.5 37.5t36.5 16.5h28q64 0 112.5 3.5t85 10t64 15.5t50.5 20q-50 45 -96 90.5t-82 82t-59 60.5t-25 26l3 77q2 1 25 19t65.5 39t102.5 38t136 17q29 0 63.5 -1t69.5 -6t67 -16t57 -32t40 -53t15 -78q0 -31 -14.5 -66t-40 -71t-62 -72t-79.5 -68
q16 -9 37 -15.5t50 -11t67 -6.5t88 -2v-107q-75 0 -129 5.5t-93.5 15.5t-67.5 24.5t-52 33.5q-33 -18 -68 -32.5t-80 -24.5t-105.5 -16t-144.5 -6h-28q-21 1 -36.5 15.5t-15.5 37.5zM197 444q20 -21 47 -48t58 -57.5t65 -63t69 -63.5q46 30 79.5 61.5t55 60t31.5 51t10 34.5
q0 18 -5 33t-25.5 25t-61.5 15.5t-112 5.5q-72 0 -125.5 -18t-85.5 -36z" />
    <glyph glyph-name="uFECE" unicode="&#x63a;" horiz-adv-x="984" arabic-form="final" 
d="M943 -336l47 -97q-3 -2 -37.5 -16.5t-90.5 -31t-130 -30.5t-155 -14q-86 0 -168 25.5t-147 75.5t-104.5 124t-39.5 172q0 71 28 127.5t74.5 101.5t106 81t122.5 66q-38 37 -71.5 71t-58.5 59.5t-40 41l-15 15.5v73q2 2 26.5 24.5t69 48.5t108 47t143.5 21q183 0 257 -80
q47 -49 41 -120q-3 -42 -21.5 -73.5t-47 -55.5t-64.5 -43t-74 -37q-14 -7 -28 -13.5t-29 -14.5l1 -1q4 -4 7.5 -7t7.5 -6q23 -21 45.5 -38t56.5 -29t86.5 -18t136.5 -6v-107q-95 0 -157.5 8t-106 23.5t-74 37.5t-60.5 49l-13 13q-11 9 -21 18t-21 19q-71 -33 -128 -65
t-97 -67.5t-61 -75.5t-21 -88q0 -75 31 -129.5t81 -90t112.5 -53t126.5 -17.5q72 0 138.5 12.5t116.5 28t80.5 28.5zM382 468q30 -32 77.5 -79.5t101.5 -99.5q26 14 49.5 25.5t45.5 22.5q39 19 66 33.5t44.5 28t26 27t9.5 31.5q2 24 -13 39q-5 5 -16 13t-31.5 15.5
t-52.5 12.5t-78 5q-40 0 -74.5 -7t-63.5 -18t-52 -24t-39 -25zM728 956l-101 -101l-103 102l102 102z" />
    <glyph glyph-name="uFECF" unicode="&#x63a;" horiz-adv-x="706" arabic-form="initial" 
d="M-54 53q0 23 16 38.5t38 15.5q45 0 92.5 3.5t94.5 8.5q-54 42 -84.5 103.5t-30.5 131.5q0 48 25.5 95t67 84.5t93.5 61t105 23.5q55 0 105 -17t88 -38t61 -39t25 -20l-36 -40l-36 -41l-17.5 14t-46 30t-66 29.5t-77.5 13.5q-33 0 -65.5 -15.5t-59 -39t-43 -50.5
t-16.5 -51q0 -35 11.5 -64.5t30 -53.5t42.5 -40.5t49 -24.5q42 -13 91 -12.5t94.5 8t82.5 18.5t57 19l41 -99q-2 -1 -18.5 -7t-43 -14t-61.5 -16t-75 -13q-8 -2 -55.5 -10.5t-116 -18.5t-150 -18t-158.5 -8q-22 0 -38 15t-16 38zM492 978l-101 -101l-102 102l102 102z" />
    <glyph glyph-name="uFED0" unicode="&#x63a;" horiz-adv-x="752" arabic-form="medial" 
d="M-54 53q0 22 16 37.5t37 16.5h1h4h22q64 0 112.5 3.5t85 10t64 15.5t50.5 20q-50 45 -96 90.5t-82 82t-59 60.5t-25 26l3 77q2 1 25 19t65.5 39t102.5 38t136 17q29 0 63.5 -1t69.5 -6t67 -16t57 -32t40 -53t15 -78q0 -31 -14.5 -66t-40 -71t-62 -72t-79.5 -68
q16 -9 37 -15.5t49.5 -11t66 -7t87.5 -2.5v-106q-75 0 -128.5 5.5t-92.5 15.5t-67 24.5t-52 33.5q-33 -18 -68 -32.5t-80 -24.5t-105.5 -16t-144.5 -6h-27q-21 0 -37 15t-16 38zM197 444q20 -21 47 -48t58 -57.5t65 -63t69 -63.5q46 30 79.5 61.5t55 60t31.5 51t10 34.5
q0 18 -5 33t-25.5 25t-61.5 15.5t-112 5.5q-72 0 -125.5 -18t-85.5 -36zM502 978l-101 -101l-102 102l102 102z" />
    <glyph glyph-name="uFED2" unicode="&#x641;" horiz-adv-x="1452" arabic-form="final" 
d="M1455 107v-107q-23 0 -58.5 2.5t-78 9.5t-90 18t-92.5 29q-86 -30 -199.5 -44.5t-256.5 -14.5q-76 0 -152.5 5t-145 21t-125 46t-92.5 81q-50 70 -49 171t52 243l101 -37q-41 -113 -44.5 -190.5t28.5 -125.5q39 -56 142 -81.5t285 -25.5q80 0 163 6t158 21l-23 21
q-74 74 -74 172q0 51 16.5 101.5t48 91t76 66t100.5 25.5q43 0 86 -16.5t77.5 -49t55.5 -80.5t21 -111q0 -139 -112 -225q49 -11 97 -16.5t85 -5.5zM1137 175q63 29 101.5 72.5t38.5 106.5q0 41 -13 69.5t-33 46t-43 25.5t-43 8q-33 0 -57.5 -17t-41.5 -43t-25.5 -57
t-8.5 -59q0 -54 42 -96q34 -32 83 -56zM1248 913l-101 -102l-103 103l102 101z" />
    <glyph glyph-name="uFED3" unicode="&#x641;" horiz-adv-x="610" arabic-form="initial" 
d="M-54 53q0 23 16 38.5t38 15.5h7q77 -3 157.5 2.5t148 22.5t114 48t55.5 79q-32 -8 -72.5 -15.5t-83.5 -6.5q-149 3 -215 87q-60 75 -33 200q9 38 28.5 74.5t50 65.5t71 46.5t91.5 17.5q48 0 92 -23.5t82 -68.5q31 -36 53.5 -81.5t35 -96.5t14.5 -105.5t-7 -108.5
q-9 -53 -38 -92t-71 -66.5t-94 -44.5t-106.5 -26.5t-108 -13t-99.5 -3.5q-20 0 -38.5 0.5t-33.5 1.5q-22 0 -38 15t-16 38zM327 345q46 -1 89.5 9t69.5 18q-5 57 -24 107.5t-51 87.5q-45 53 -92 53q-32 0 -56 -12.5t-40.5 -30.5t-26 -39t-13.5 -38q-17 -74 12 -110
q36 -43 132 -45zM410 1015l-101 -102l-102 103l101 101z" />
    <glyph glyph-name="uFED4" unicode="&#x641;" horiz-adv-x="695" arabic-form="medial" 
d="M-54 53q0 23 16 38.5t38 15.5q31 0 67 0.5t68.5 0.5h58.5h38h17q-33 27 -59.5 61.5t-41.5 76.5q-23 63 -11.5 133t53.5 129q36 52 86.5 80t107.5 28q47 0 87 -18t72 -53q42 -45 61 -110t11 -134q-6 -58 -31.5 -106t-65.5 -85q9 -2 18 -2h17h160v-108h-160q-35 0 -77 7.5
t-86 23.5q-79 -31 -158 -31h-228h-4q-22 0 -38 15t-16 38zM508 312q5 46 -7 89.5t-38 71.5q-32 36 -79 36q-20 0 -37 -6.5t-30.5 -16t-23.5 -20.5t-16 -20q-26 -37 -34 -81.5t6 -82.5q16 -45 54.5 -78t85.5 -56q48 26 81 67.5t38 96.5zM485 926l-97 -96l-96 97l95 96z" />
    <glyph glyph-name="uFED6" unicode="&#x642;" horiz-adv-x="1051" arabic-form="final" 
d="M987 108h72v-108h-73q-14 -222 -139.5 -335.5t-358.5 -113.5q-15 0 -40.5 1.5t-57.5 6.5t-68.5 14.5t-73 26.5t-71 41.5t-62.5 59.5q-109 136 -59 363q9 44 24 91.5t29 87t25 65.5t12 29l99 -42l-10 -24.5t-23.5 -62t-27.5 -82.5t-23 -85q-39 -178 38 -273
q32 -39 76.5 -61.5t87.5 -33t77.5 -13t47.5 -2.5q186 0 282 84t108 258h-159q-72 0 -121 21.5t-80 55t-44.5 75.5t-13.5 83q0 55 19 112t53 103t79 75t98 29q54 0 95 -21.5t71 -57.5t50 -82.5t33 -96t19.5 -98.5t9.5 -90zM719 108h160q-2 28 -6.5 64t-13 73.5t-21 73.5
t-30.5 64.5t-42.5 45.5t-56.5 17q-25 0 -50 -19t-45.5 -49t-33 -68t-12.5 -75q0 -18 5 -40t21 -41.5t45.5 -32.5t79.5 -13zM696 792l-96 -96l-97 97l96 96zM904 792l-96 -96l-97 97l96 96z" />
    <glyph glyph-name="uFED7" unicode="&#x642;" horiz-adv-x="615" arabic-form="initial" 
d="M-54 53q0 23 16 38.5t38 15.5q51 0 105 2.5t105.5 8.5t98.5 17t83.5 28t60.5 41t30 56q-32 -8 -73 -15t-84 -6q-147 2 -215 86q-60 77 -32 200q9 38 28.5 75t50 65.5t71 46t91.5 17.5q47 0 91.5 -23t82.5 -68q31 -37 53 -82.5t34.5 -96.5t14.5 -105.5t-7 -108.5
q-9 -53 -38 -92t-71 -66t-93.5 -44.5t-106 -27t-108 -13t-99.5 -3.5q-17 0 -34 0.5t-31 0.5h-8q-22 0 -38 15t-16 38zM328 346q46 -1 89.5 9.5t69.5 18.5q-5 57 -24.5 107t-50.5 87q-45 54 -92 54q-32 0 -56 -12.5t-40.5 -31t-26 -39.5t-13.5 -38q-17 -73 12 -109
q17 -22 50.5 -33.5t81.5 -12.5zM306 978l-96 -96l-97 97l96 96zM520 978l-96 -96l-97 97l96 96z" />
    <glyph glyph-name="uFED8" unicode="&#x642;" horiz-adv-x="698" arabic-form="medial" 
d="M-1 -1v1q-21 0 -37 15t-16 38q0 22 16 37.5t37 16.5h1h4h213q5 0 9 0.5t9 0.5q-34 27 -60.5 61.5t-41.5 76.5q-22 63 -11 132.5t53 129.5q36 52 87 80t108 28q93 0 159 -71q41 -46 60 -110.5t12 -133.5q-6 -59 -32 -106.5t-66 -84.5q19 -3 36 -3h159v-107h-159
q-36 0 -78 7.5t-85 22.5q-77 -30 -159 -30h-36h-54t-63.5 -0.5t-64.5 -0.5zM494 312q5 45 -7.5 88.5t-37.5 72.5q-33 35 -79 35q-21 0 -37.5 -6.5t-30 -16t-23.5 -20t-16 -19.5q-26 -38 -34 -82t6 -82q16 -45 54 -78.5t86 -56.5q48 26 80.5 68t38.5 97zM389 884l-97 -95
l-96 96l95 97zM602 884l-95 -95l-98 96l97 97z" />
    <glyph glyph-name="uFEDE" unicode="&#x644;" horiz-adv-x="1037" arabic-form="final" 
d="M1039 107v-107q-3 0 -14 0.5t-26.5 3.5t-35 9.5t-38.5 17.5q-1 1 -2 1v-38q-3 -87 -33 -160.5t-84 -128.5q-128 -130 -366 -130q-23 0 -60 3.5t-79.5 16.5t-85 37.5t-76.5 66.5q-100 122 -53 339q9 40 24 82.5t29.5 77.5t25.5 58.5t12 25.5l96 -47l-10 -21.5t-23 -53.5
t-27 -71t-21 -74q-36 -166 30 -249q24 -29 56 -45.5t63.5 -25t58.5 -10.5t40 -2q192 0 290 98q27 27 43.5 57.5t26 60.5t13 58t3.5 50q0 39 -1.5 102.5t-3 141.5t-4 164t-5 170.5t-5 161.5t-4 136t-3 94.5t-1.5 37.5l108 3q0 -6 1 -44t3 -97.5t4 -136t4.5 -159.5t5 -168
t4.5 -161q0 -94 59 -127q22 -13 41 -15.5t20 -2.5z" />
    <glyph glyph-name="uFEDF" unicode="&#x644;" horiz-adv-x="408" arabic-form="initial" 
d="M-54 53q0 23 16 38.5t38 15.5h2h1q57 0 103 3.5t76 23.5q6 4 16.5 14t21 32.5t18 61.5t7.5 101q0 79 -1.5 159t-3.5 153t-4.5 136.5t-4.5 110.5t-3.5 74t-1.5 28l108 6q0 -1 1.5 -28.5t3.5 -74.5t4.5 -111t4.5 -138t3.5 -154.5t1.5 -160.5q0 -115 -27.5 -187.5
t-84.5 -110.5q-25 -17 -52.5 -26t-57.5 -13.5t-62.5 -5t-65.5 -0.5h-1h-2q-22 0 -38 15t-16 38z" />
    <glyph glyph-name="uFEE0" unicode="&#x644;" horiz-adv-x="473" arabic-form="medial" 
d="M-54 53q0 23 16 38.5t38 15.5q71 0 113.5 14t65 32t30 34t8.5 20q2 9 2.5 39.5t0 72t-2 89.5t-2.5 90.5t-2 76t-1 45.5l-9 388l107 2l7 -334q0 -15 1 -52.5t1.5 -87t1 -104.5t1 -104t1 -86.5t1.5 -51.5q1 -28 17.5 -44.5t38.5 -25t43 -11t31 -2.5h21v-107h-21
q-58 0 -111 19t-87 59q-35 -32 -95.5 -54.5t-156.5 -23.5h-4q-22 0 -38 15t-16 38z" />
    <glyph glyph-name="uFEE2" unicode="&#x645;" horiz-adv-x="973" arabic-form="final" 
d="M974 107v-107q-15 1 -34 5t-39 11.5t-40.5 19.5t-38.5 29q-10 -11 -26 -21q-27 -17 -62 -21t-81 5t-104 31.5t-131 59.5q-38 19 -64 27.5t-41.5 10.5t-23 -0.5t-9.5 -3.5q-9 -6 -13 -21.5t-5 -34t-0.5 -37.5t1.5 -31l19 -489l-108 -4q-5 116 -8 197t-5 134t-3 83l-1.5 45
t-1 19.5t-0.5 7.5q-2 24 -2.5 54.5t5.5 61t20 58.5t43 47q55 37 142 13q9 20 23.5 50.5t34.5 63.5t44 66t52 59.5t59.5 43t65.5 16.5q69 0 114 -31.5t71.5 -78t37 -99.5t10.5 -95q0 -14 -0.5 -29.5t-2.5 -31.5q6 -29 22.5 -45t33.5 -24.5t31 -11t15 -2.5zM740 135
q6 5 12.5 16t11.5 37q0 1 -1 1h1q2 12 3 27t1 35q0 5 -1 21.5t-4.5 38t-11.5 46t-22 44.5t-35.5 33t-51.5 13q-18 0 -41 -20t-47 -52t-47.5 -73.5t-42.5 -84.5q1 0 3 -2q69 -35 116.5 -53.5t79.5 -26t50 -6.5t27 6z" />
    <glyph glyph-name="uFEE3" unicode="&#x645;" horiz-adv-x="751" arabic-form="initial" 
d="M-54 53q0 23 16 38.5t38 15.5h4q40 1 73.5 20t57.5 41t38 40.5l14 18.5h1l-1 1q11 15 21 34t21 40q18 37 41 77.5t54 74.5t71.5 56.5t94.5 22.5q56 0 99 -29t72.5 -73t44.5 -95.5t15 -96.5q0 -83 -16 -132.5t-40 -76.5t-51.5 -35.5t-49.5 -8.5q-45 0 -91.5 14.5
t-89.5 35.5t-80 44.5t-62 42.5q-17 -19 -40 -40.5t-53 -39.5t-66 -30t-78 -13h-4q-22 0 -38 15t-16 38zM302 211q24 -18 56 -38.5t67 -38t71 -29t68 -11.5q17 0 27 18t15 42t6.5 48t1.5 37q0 28 -9 60.5t-25.5 60.5t-39 46.5t-50.5 18.5q-27 0 -49 -12.5t-41.5 -35.5
t-38 -54.5t-37.5 -69.5q-5 -11 -10.5 -21t-11.5 -21z" />
    <glyph glyph-name="uFEE4" unicode="&#x645;" horiz-adv-x="823" arabic-form="medial" 
d="M-54 53q0 23 16 38.5t38 15.5q41 0 75 18t59 39.5t39 40l14 18.5h2l-1 1q10 15 20 34.5t21 40.5q19 36 42 76.5t53.5 74.5t71 56.5t94.5 22.5q56 0 99 -29t72.5 -73t45 -95.5t15.5 -96.5q0 -12 -1 -24t-3 -23q0 -27 18 -46q17 -17 38.5 -25.5t35.5 -9.5h16v-107h-16
q-31 0 -71.5 15t-72.5 45q-24 -29 -56.5 -44.5t-71.5 -15.5q-44 0 -86.5 12t-81.5 30t-72 39t-57 38q-17 -19 -40 -40t-53 -38t-66 -28.5t-78 -12.5h-4q-22 0 -38 15t-16 38zM538 107q20 0 34.5 11t23.5 29t13.5 41t4.5 47q0 28 -9 60.5t-25.5 60.5t-39 47t-50.5 19
q-27 0 -49 -13t-41.5 -35.5t-38 -54.5t-37.5 -69q-5 -11 -10.5 -21.5t-11.5 -21.5q21 -15 49 -32.5t59.5 -32.5t64 -25t63.5 -10z" />
    <glyph glyph-name="uFEE6" unicode="&#x646;" horiz-adv-x="1256" arabic-form="final" 
d="M1078 252q3 -7 16 -30.5t35.5 -48.5t54.5 -45t74 -20v-108q-46 0 -84 13.5t-68 34.5q-3 -241 -129.5 -365t-370.5 -124q-22 0 -67 4t-98.5 19t-109 45t-97.5 82q-109 136 -59 363q10 45 28 97t36.5 97t32.5 75.5t15 32.5l96 -47l-13 -28.5t-30 -70.5t-34 -90.5t-26 -88.5
q-39 -177 38 -272q32 -39 76.5 -61.5t87 -33t77.5 -13t47 -2.5q200 0 296.5 97t96.5 297q0 56 -14.5 115t-31.5 108t-32 80t-15 32l96 49q1 -2 9 -19t19.5 -44t24.5 -61t23 -69zM755 624l-101 -102l-103 103l102 101z" />
    <glyph glyph-name="uFEE7" unicode="&#x646;" horiz-adv-x="401" arabic-form="initial" 
d="M-54 53q0 23 16 38.5t38 15.5h25q39 -1 77.5 1t71.5 10t57 25.5t33 47.5q4 15 -2 53t-19.5 88t-32 106t-38.5 108l100 39q7 -19 19 -51t25 -71t25 -82t20 -83.5t10.5 -76.5t-4.5 -60q-16 -55 -51.5 -87t-79.5 -48.5t-90.5 -21t-85.5 -4.5h-60q-22 0 -38 15t-16 38z
M348 814l-101 -101l-101 102l101 101z" />
    <glyph glyph-name="uFEE8" unicode="&#x646;" horiz-adv-x="502" arabic-form="medial" 
d="M-54 53q0 23 16 38.5t38 15.5h4h5q142 0 189 71q22 32 24.5 72.5t-2.5 76.5t-13.5 61l-8.5 25l100 41q1 -2 7.5 -20.5t13 -48t11 -66.5t0.5 -76q-1 -55 30 -88q18 -18 40 -27.5t42.5 -14t35 -5.5t17.5 -1h18v-107h-18q-6 0 -29 1.5t-54 9t-66 24t-63 45.5q-4 3 -7 7l-6 8
q-81 -94 -252 -95h-14h-4q-22 0 -38 15t-16 38zM325 734l-102 -101l-102 101l101 102z" />
    <glyph glyph-name="uFEEA" unicode="&#x647;" horiz-adv-x="763" arabic-form="final" 
d="M764 107h33v-107h-35q-97 0 -159 40t-87 116q-40 -23 -90 -37.5t-104 -14.5q-13 0 -26 1t-26 3q-43 7 -78 30.5t-57 61.5q-21 36 -25 78t11 81q11 30 35.5 59.5t56.5 57t68 52t69.5 44.5t61.5 35t44 23l-11 91l107 13l56 -471q0 -84 36 -119.5t120 -36.5zM286 214
q35 -5 68 -0.5t61.5 14.5t50 22.5t33.5 23.5l-29 242q-39 -21 -79.5 -46t-75.5 -51t-60.5 -51t-32.5 -46q-7 -17 -5 -34.5t11 -33.5q20 -34 58 -40z" />
    <glyph glyph-name="uFEEB" unicode="&#x647;" horiz-adv-x="867" arabic-form="initial" 
d="M-54 53q0 23 16 38.5t38 15.5h4h60t50.5 1t50 3t59.5 5l-11 10q-27 28 -45.5 59t-30.5 61.5t-17 58.5t-4 51q3 56 32 111.5t77 93.5l-33 9l27 104q12 -3 45 -12.5t79.5 -26t101 -39.5t110 -52.5t107.5 -66t92.5 -80t64.5 -93.5t24 -108q0 -48 -17.5 -81t-45 -54.5
t-62 -33t-68.5 -17t-64 -6.5t-49 -1q-58 0 -105 9.5t-85 24.5q-91 -34 -203 -34q-7 -1 -31.5 -2t-66.5 -1h-42h-4q-22 0 -38 15t-16 38zM358 505q-24 0 -47.5 -15t-42.5 -37.5t-31 -49.5t-13 -52q-1 -23 13.5 -66t53.5 -84q25 -27 58 -46q91 49 120 144q14 47 9 90t-27 72
q-11 14 -27 26l-32 13q-17 5 -34 5zM476 114q14 -2 29.5 -3t31.5 -1q75 0 115 9t59 22.5t22 28.5t3 26q0 28 -11.5 55.5t-32 53t-48 49t-59.5 45.5q6 -64 -13 -130q-27 -92 -96 -155z" />
    <glyph glyph-name="uFEEC" unicode="&#x647;" horiz-adv-x="614" arabic-form="medial" 
d="M-54 53q0 21 15 36.5t35 17.5h4h4h79q4 128 27 216.5t56.5 144t73 80t78.5 24.5q57 0 100 -46q35 -39 50.5 -102.5t7.5 -133.5q-5 -48 -24 -97.5t-53 -90.5t-85 -69t-121 -32q10 -74 40 -133.5t68 -105.5q-15 106 33 187q26 45 64 75.5t77 49t72.5 26.5t51.5 8h26v-108
h-26q-9 0 -30.5 -5.5t-47.5 -18t-52 -32.5t-43 -49q-57 -99 40 -270l-3 -2l9 -5l-50 -95q-3 2 -27 16t-59 41t-75.5 66t-77 91.5t-63.5 118t-35 144.5h-89q-20 2 -35 16.5t-15 36.5zM318 465q-14 0 -34.5 -18.5t-39.5 -60.5t-34 -110t-19 -168q55 5 89 29.5t53 55.5
t26.5 61.5t9.5 47.5q6 54 -5 94.5t-26 57.5q-8 8 -13 9.5t-7 1.5z" />
    <glyph glyph-name="uFEEE" unicode="&#x648;" horiz-adv-x="662" arabic-form="final" 
d="M627 107h44v-107h-43q-7 -85 -39 -152t-77 -119t-96 -88.5t-95 -60.5t-75 -35.5t-35 -13.5l-33 102q3 1 28 10.5t60.5 28.5t77 48.5t78.5 69.5t64 92.5t34 117.5h-60h-102q-72 0 -121 21.5t-80 55t-44.5 75.5t-13.5 83q0 55 19 112t53 103t79 75t98 29q54 0 95 -21.5
t71 -57.5t50 -82.5t33 -96t20 -99t10 -90.5zM460 108h59q-2 28 -7 64.5t-13 74t-21 73.5t-31 64t-42.5 45t-56.5 17q-25 0 -50 -19t-45.5 -49t-33 -67.5t-12.5 -75.5q0 -18 5 -40t21 -41.5t46 -32.5t79 -13h102z" />
    <glyph glyph-name="uFEF0" unicode="&#x649;" horiz-adv-x="1137" arabic-form="final" 
d="M1139 0q-33 0 -68 2t-69 6q38 -34 61.5 -73t23.5 -84q0 -65 -40.5 -118.5t-113 -92t-173 -60t-221.5 -21.5q-224 0 -344 132q-43 47 -65.5 99.5t-32.5 102t-10 91t2 66.5q7 79 25 150t37.5 124.5t34.5 86t17 35.5l95 -49q0 -1 -13.5 -30t-31 -78t-34 -113.5t-23.5 -135.5
q-2 -20 -2 -52.5t7 -70.5t24 -78.5t49 -75.5q88 -96 265 -96q102 0 183.5 16t138.5 42.5t87.5 59.5t30.5 66q0 28 -30 59.5t-78.5 62t-109.5 57t-122 45.5l15 51l14 52q1 0 22 -5t56 -13t81.5 -17t99 -17t107 -13t105.5 -5v-108z" />
    <glyph glyph-name=".notdef" horiz-adv-x="1024" 
d="M128 0v1343h768v-1343h-768zM256 128h512v1087h-512v-1087z" />
    <glyph glyph-name=".null" 
 />
    <glyph glyph-name="nonmarkingreturn" horiz-adv-x="500" 
 />
    <glyph glyph-name="space" unicode=" " horiz-adv-x="500" 
 />
    <glyph glyph-name="exclam" unicode="!" horiz-adv-x="333" 
d="M112 262l-27 628v258h154v-258l-23 -628h-104zM76 99q0 21 7.5 39t21 31.5t32 21.5t39.5 8t39 -8t31.5 -21.5t21 -31.5t7.5 -39q0 -42 -28.5 -70.5t-70.5 -28.5q-21 0 -39.5 7.5t-32 21t-21 31.5t-7.5 39z" />
    <glyph glyph-name="percent" unicode="%" horiz-adv-x="894" 
d="M611 1218l109 -39l-468 -1311l-110 39zM612 98q0 21 7.5 39t21 31.5t32 21.5t39.5 8t39 -8t31.5 -21.5t21 -31.5t7.5 -39q0 -42 -28.5 -70.5t-70.5 -28.5q-21 0 -39.5 7.5t-32 21t-21 31.5t-7.5 39zM88 1026q0 21 7.5 39t21 31.5t32 21.5t39.5 8t39 -8t31.5 -21.5
t21 -31.5t7.5 -39q0 -42 -28.5 -70.5t-70.5 -28.5q-21 0 -39.5 7.5t-32 21t-21 31.5t-7.5 39z" />
    <glyph glyph-name="parenleft" unicode="(" horiz-adv-x="576" 
d="M508 -259q-4 3 -30.5 25.5t-64.5 63t-81.5 98t-80.5 130t-61.5 159t-24.5 185.5q0 98 24.5 186t61 163t80 135.5t81.5 103.5t65 67.5t30 27.5l68 -83q-1 -1 -23.5 -21.5t-56.5 -58.5t-73 -92t-72.5 -120.5t-55.5 -144t-22 -163.5q0 -85 22 -160.5t55.5 -139t72.5 -114.5
t72.5 -86.5t56 -55l22.5 -19.5z" />
    <glyph glyph-name="parenright" unicode=")" horiz-adv-x="576" 
d="M218 -256l-65 85q1 0 23.5 19.5t56 55t72 86.5t72 114.5t55.5 139.5t22 161q0 86 -22 163.5t-55.5 144t-72.5 120t-73 91.5t-56.5 59t-23.5 22l69 82q3 -3 30 -27.5t65 -67.5t81.5 -103t80 -135t61 -163t24.5 -186q0 -99 -24.5 -185.5t-61.5 -159t-80.5 -130t-82 -98
t-65.5 -63.5t-30 -25z" />
    <glyph glyph-name="asterisk" unicode="*" horiz-adv-x="1045" 
d="M917 610q-81 -76 -212 -108q-4 -1 -10 -1q-3 0 -4 1q-3 2 0 13q39 141 109 208q24 23 55 23q34 0 58 -24.5t24 -58.5t-20 -53zM681 777q0 -108 -74 -228q-5 -11 -10 -11q-5 2 -10 11q-69 121 -69 224q0 78 83 78q30 0 55 -22.5t25 -51.5zM1043 405q0 -29 -22.5 -54
t-51.5 -25q-109 0 -229 73q-9 7 -9 10q0 5 9 10q121 69 225 69q78 0 78 -83zM681 407q0 -33 -24.5 -56.5t-57.5 -23.5t-57 23.5t-24 56.5q0 34 23.5 57.5t57.5 23.5t58 -23.5t24 -57.5zM914 206q24 -25 24 -56q0 -33 -25 -57t-58 -24q-34 0 -53 20q-75 80 -109 212
q-3 11 0 15q4 3 14 0q139 -39 207 -110zM505 499q-3 -3 -14 0q-138 38 -208 110q-23 24 -23 55q0 34 24.5 57.5t58.5 23.5q35 0 53 -19q74 -76 109 -213q3 -11 0 -14zM468 405q-2 -5 -11 -10q-119 -68 -224 -68q-78 0 -78 82q0 30 22.5 55t51.5 25q108 0 228 -74
q10 -6 11 -10zM680 42q0 -79 -83 -79q-29 0 -54.5 23t-25.5 52q0 107 74 228q6 10 10 10q5 -1 10 -10q69 -122 69 -224zM508 299q-39 -137 -111 -207q-24 -23 -55 -23q-34 0 -57 24t-23 58q0 51 86 101q72 42 146 61q11 3 14 0q1 -4 0 -14z" />
    <glyph glyph-name="plus" unicode="+" horiz-adv-x="767" 
d="M678 410v-107h-261v-250h-108v250h-261v107h261v261h108v-261h261v0z" />
    </font>
</defs>
</svg>
